<?xml version="1.0" encoding="UTF-8" standalone="no"?>
<!DOCTYPE svg PUBLIC "-//W3C//DTD SVG 1.1//EN" "http://www.w3.org/Graphics/SVG/1.1/DTD/svg11.dtd">
<svg xmlns="http://www.w3.org/2000/svg" version="1.1" viewBox="0.00 0.00 420.00 154.00">
<g stroke-width="2.00" fill="none" stroke-linecap="butt">
<path stroke="#d4cdc6" vector-effect="non-scaling-stroke" d="
  M 9.21 54.98
  L 9.20 45.57
  Q 9.20 45.01 9.70 44.77
  L 54.68 22.64
  A 0.71 0.68 44.1 0 1 55.31 22.64
  L 104.04 46.57
  Q 104.67 46.88 104.69 46.18
  L 104.74 43.22
  Q 104.75 42.62 104.20 42.35
  L 56.00 18.67
  A 2.28 2.27 44.6 0 0 53.99 18.68
  L 6.25 42.17
  A 1.75 1.75 0.0 0 0 5.27 43.74
  L 5.26 80.12
  A 1.68 1.68 0.0 0 0 6.94 81.80
  L 63.44 81.78
  A 0.91 0.90 90.0 0 1 64.34 82.69
  L 64.24 114.25
  A 0.25 0.25 0.0 0 1 63.99 114.50
  L 5.64 114.61
  Q 4.62 114.61 4.77 115.61
  L 4.98 116.99
  A 1.26 1.26 0.0 0 0 6.20 118.06
  C 11.00 118.14 15.97 118.49 20.75 118.49
  Q 61.56 118.50 102.28 118.48
  Q 104.72 118.47 104.72 116.03
  L 104.72 57.74
  A 1.98 1.98 0.0 0 0 102.74 55.76
  L 9.98 55.75
  Q 9.21 55.75 9.21 54.98"
/>
<path stroke="#d4cdc6" vector-effect="non-scaling-stroke" d="
  M 331.78 52.31
  L 334.54 52.58
  Q 335.88 52.71 334.99 51.70
  L 332.81 49.22
  Q 332.28 48.62 331.80 49.26
  L 330.65 50.78
  Q 330.28 51.26 329.67 51.26
  L 321.77 51.20
  Q 321.01 51.20 321.33 50.50
  Q 322.22 48.53 323.80 47.55
  Q 324.28 47.25 323.79 46.98
  L 321.19 45.50
  Q 320.53 45.12 320.25 45.83
  Q 317.84 52.14 313.27 58.03
  Q 313.13 58.22 313.31 58.36
  L 313.56 58.55
  A 0.60 0.58 40.7 0 0 314.34 58.50
  L 318.61 54.02
  A 0.33 0.33 0.0 0 1 319.14 54.11
  Q 320.81 57.68 323.36 60.96
  A 0.87 0.87 0.0 0 1 323.28 62.13
  Q 319.83 65.41 315.07 67.88
  A 0.22 0.22 0.0 0 0 314.97 68.15
  L 315.10 68.47
  A 0.28 0.27 -20.9 0 0 315.44 68.62
  Q 320.24 66.99 324.41 63.67
  A 1.23 1.22 48.4 0 1 326.03 63.77
  Q 329.49 67.25 333.91 68.81
  A 0.65 0.64 -66.5 0 0 334.71 68.49
  L 335.70 66.53
  Q 336.01 65.92 335.35 65.74
  Q 331.08 64.56 327.36 61.91
  A 0.62 0.61 -50.0 0 1 327.28 60.97
  Q 329.63 58.58 331.20 55.49
  Q 331.48 54.92 332.03 54.61
  Q 332.71 54.23 332.58 53.49
  Q 332.51 53.06 332.08 53.03
  Q 331.78 53.00 331.56 52.71
  Q 331.20 52.25 331.78 52.31"
/>
<path stroke="#d4cdc6" vector-effect="non-scaling-stroke" d="
  M 166.74 50.03
  Q 166.39 47.79 167.52 46.40
  Q 167.93 45.90 167.28 45.86
  L 164.20 45.68
  Q 163.55 45.65 163.55 46.30
  L 163.52 49.85
  Q 163.52 50.46 162.90 50.46
  L 153.95 50.49
  A 0.33 0.32 79.8 0 0 153.65 50.93
  L 153.80 51.35
  Q 153.94 51.74 154.36 51.74
  L 163.04 51.76
  Q 163.58 51.76 163.57 52.29
  L 163.53 55.85
  A 0.49 0.49 0.0 0 0 164.13 56.33
  L 165.95 55.90
  Q 166.77 55.70 166.77 54.85
  L 166.74 52.25
  A 0.51 0.50 -0.6 0 1 167.25 51.74
  L 177.01 51.76
  Q 177.74 51.77 177.74 52.51
  L 177.73 56.03
  Q 177.72 56.48 178.16 56.37
  L 180.30 55.83
  Q 180.78 55.71 180.79 55.21
  L 180.80 52.22
  Q 180.80 51.74 181.28 51.74
  L 190.68 51.74
  Q 191.46 51.74 190.95 51.15
  L 188.62 48.42
  Q 188.15 47.88 187.72 48.45
  L 186.64 49.92
  Q 186.26 50.43 185.62 50.44
  L 181.28 50.50
  Q 180.93 50.51 180.85 50.17
  Q 180.25 47.73 181.69 46.34
  Q 182.23 45.83 181.49 45.81
  L 178.27 45.72
  Q 177.73 45.70 177.73 46.24
  L 177.73 49.74
  Q 177.73 50.46 177.01 50.46
  L 167.28 50.49
  Q 166.81 50.49 166.74 50.03"
/>
<path stroke="#d4cdc6" vector-effect="non-scaling-stroke" d="
  M 352.44 53.24
  L 381.80 53.24
  A 0.41 0.41 0.0 0 0 382.10 52.56
  L 379.74 49.98
  A 0.67 0.66 -47.1 0 0 378.72 50.02
  L 377.76 51.24
  Q 377.35 51.76 376.69 51.76
  L 367.47 51.75
  Q 366.85 51.75 366.76 51.15
  Q 366.31 48.15 367.37 46.50
  Q 367.76 45.90 367.05 45.86
  L 364.04 45.68
  Q 363.47 45.65 363.48 46.21
  L 363.49 51.26
  Q 363.49 51.75 362.99 51.75
  L 352.01 51.75
  A 1.63 1.61 -29.0 0 1 351.16 51.51
  L 349.23 50.32
  A 0.43 0.43 0.0 0 0 348.58 50.69
  C 348.85 63.07 349.48 75.79 344.64 87.29
  Q 344.52 87.58 344.79 87.72
  L 345.12 87.89
  A 0.52 0.51 27.8 0 0 345.81 87.68
  Q 351.29 77.50 351.65 65.83
  Q 351.84 59.73 351.70 54.00
  Q 351.68 53.24 352.44 53.24"
/>
<path stroke="#d4cdc6" vector-effect="non-scaling-stroke" d="
  M 222.38 50.91
  L 221.31 55.76
  Q 221.22 56.20 220.77 56.27
  Q 215.92 57.07 212.09 55.27
  A 0.27 0.27 0.0 0 0 211.71 55.52
  L 211.70 72.54
  Q 211.70 73.19 212.34 73.11
  Q 213.83 72.93 214.97 72.13
  Q 215.52 71.75 216.20 71.74
  L 221.36 71.72
  Q 222.01 71.72 222.00 72.36
  L 221.98 85.09
  Q 221.97 85.92 221.15 85.84
  L 216.35 85.36
  A 0.32 0.31 2.4 0 0 216.00 85.68
  L 216.00 85.96
  Q 216.02 86.70 216.74 86.86
  L 222.93 88.25
  A 1.74 1.73 6.4 0 0 225.05 86.56
  L 225.06 72.45
  A 0.74 0.74 0.0 0 1 225.80 71.71
  L 231.28 71.75
  Q 231.82 71.75 232.09 72.23
  Q 232.88 73.66 234.81 72.70
  Q 235.33 72.44 235.32 71.87
  Q 235.30 65.85 235.36 59.33
  Q 235.37 58.41 236.10 57.79
  A 0.61 0.60 -42.8 0 0 236.14 56.90
  L 234.23 55.04
  Q 233.77 54.59 233.30 55.04
  L 232.30 55.99
  Q 231.87 56.41 231.26 56.41
  L 222.93 56.42
  A 0.13 0.13 0.0 0 1 222.82 56.23
  L 225.91 50.50
  Q 226.05 50.25 226.33 50.25
  L 238.24 50.24
  Q 239.33 50.24 238.59 49.45
  L 236.22 46.90
  Q 235.77 46.41 235.34 46.93
  L 234.19 48.35
  Q 233.85 48.76 233.31 48.76
  L 208.55 48.76
  Q 208.02 48.76 207.55 48.51
  L 205.42 47.34
  A 0.47 0.47 0.0 0 0 204.73 47.76
  Q 205.07 58.99 204.62 70.44
  Q 204.29 78.86 201.14 86.70
  A 0.36 0.36 0.0 0 0 201.37 87.17
  L 201.66 87.26
  Q 202.30 87.45 202.60 86.85
  Q 207.72 76.68 207.88 65.22
  Q 208.00 57.56 207.97 50.80
  Q 207.97 50.25 208.52 50.25
  L 221.84 50.24
  Q 222.52 50.24 222.38 50.91"
/>
<path stroke="#d4cdc6" vector-effect="non-scaling-stroke" d="
  M 312.52 65.16
  L 308.42 72.34
  Q 308.35 72.48 308.49 72.53
  L 308.78 72.64
  A 0.49 0.48 31.6 0 0 309.31 72.52
  Q 312.57 69.14 315.51 65.56
  Q 316.17 64.75 317.16 64.31
  Q 317.64 64.10 317.28 63.72
  L 315.12 61.42
  Q 314.73 61.00 314.40 61.47
  Q 312.67 63.94 308.74 63.07
  Q 307.85 62.88 308.59 62.34
  L 309.47 61.70
  A 0.63 0.62 47.0 0 0 309.50 60.71
  L 307.26 58.84
  Q 306.53 58.22 307.16 57.50
  L 313.23 50.65
  A 2.48 2.28 -81.0 0 1 313.95 50.08
  L 314.70 49.71
  Q 315.26 49.43 314.82 49.00
  L 312.64 46.85
  A 0.64 0.63 35.7 0 0 311.63 47.01
  Q 310.90 48.46 309.26 48.46
  Q 303.76 48.45 298.22 48.47
  Q 297.72 48.47 297.81 48.96
  L 297.86 49.29
  Q 297.95 49.86 298.53 49.86
  L 309.68 49.89
  A 0.39 0.38 15.0 0 1 310.02 50.47
  L 306.18 57.06
  A 0.58 0.58 0.0 0 1 305.32 57.22
  Q 303.30 55.59 300.76 54.25
  Q 300.40 54.06 300.02 54.23
  Q 299.49 54.46 299.93 54.83
  Q 303.83 58.12 306.84 62.57
  A 0.42 0.42 0.0 0 1 306.49 63.22
  L 297.39 63.12
  A 0.39 0.39 0.0 0 0 297.00 63.55
  L 297.04 63.91
  Q 297.10 64.48 297.66 64.48
  L 303.30 64.50
  Q 304.01 64.50 303.81 65.17
  Q 301.41 73.48 295.95 81.05
  A 0.53 0.52 27.3 0 0 296.21 81.85
  L 296.45 81.93
  Q 296.57 81.97 296.66 81.88
  Q 301.31 76.83 304.29 70.90
  Q 304.80 69.86 304.80 71.02
  L 304.81 85.02
  Q 304.81 85.85 303.98 85.80
  L 299.77 85.56
  A 0.27 0.27 0.0 0 0 299.49 85.82
  L 299.48 86.25
  A 0.65 0.64 7.2 0 0 299.98 86.89
  L 305.76 88.24
  A 1.55 1.55 0.0 0 0 307.67 86.73
  L 307.73 65.00
  Q 307.73 64.47 308.25 64.48
  L 312.14 64.50
  Q 312.90 64.50 312.52 65.16"
/>
<path stroke="#d4cdc6" vector-effect="non-scaling-stroke" d="
  M 266.01 83.26
  A 0.31 0.31 0.0 0 1 265.70 83.57
  L 249.52 83.60
  A 0.31 0.31 0.0 0 0 249.21 83.96
  L 249.34 84.78
  A 0.31 0.31 0.0 0 0 249.65 85.04
  L 285.81 85.04
  A 0.31 0.31 0.0 0 0 286.04 84.52
  L 283.41 81.55
  A 0.31 0.31 0.0 0 0 282.95 81.55
  L 281.23 83.47
  A 0.31 0.31 0.0 0 1 281.00 83.57
  L 269.41 83.62
  A 0.31 0.31 0.0 0 1 269.10 83.31
  L 269.11 53.58
  A 0.31 0.31 0.0 0 1 269.42 53.27
  L 283.42 53.21
  A 0.31 0.31 0.0 0 0 283.65 52.70
  L 280.92 49.64
  A 0.31 0.31 0.0 0 0 280.45 49.66
  L 278.87 51.62
  A 0.31 0.31 0.0 0 1 278.63 51.74
  L 251.79 51.77
  A 0.31 0.31 0.0 0 0 251.48 52.09
  L 251.51 52.93
  A 0.31 0.31 0.0 0 0 251.82 53.23
  L 265.69 53.25
  A 0.31 0.31 0.0 0 1 266.00 53.56
  L 266.01 83.26"
/>
<path stroke="#d4cdc6" vector-effect="non-scaling-stroke" d="
  M 158.28 60.49
  L 186.52 60.49
  A 0.53 0.52 90.0 0 1 187.04 61.02
  L 187.00 66.69
  A 0.58 0.57 84.1 0 0 187.70 67.26
  L 189.50 66.86
  Q 190.16 66.72 190.17 66.04
  L 190.18 61.70
  Q 190.18 61.12 190.58 60.70
  L 190.98 60.27
  Q 191.30 59.91 190.95 59.59
  L 188.74 57.51
  Q 188.37 57.16 188.05 57.55
  L 187.13 58.69
  Q 186.68 59.24 185.97 59.24
  L 174.32 59.19
  Q 173.77 59.18 173.69 58.64
  Q 173.35 56.52 174.51 55.12
  Q 174.96 54.58 174.27 54.54
  L 171.24 54.35
  A 0.66 0.65 -88.4 0 0 170.55 55.01
  L 170.60 58.59
  A 0.58 0.58 0.0 0 1 170.04 59.17
  Q 164.19 59.29 158.47 59.17
  C 157.24 59.15 156.15 58.54 155.09 57.96
  Q 154.50 57.63 154.50 58.30
  L 154.50 66.70
  Q 154.50 67.43 155.21 67.26
  L 156.94 66.86
  Q 157.58 66.71 157.57 66.06
  L 157.56 61.22
  A 0.73 0.72 90.0 0 1 158.28 60.49"
/>
<path stroke="#d4cdc6" vector-effect="non-scaling-stroke" d="
  M 367.04 64.16
  L 380.96 64.11
  A 0.31 0.30 68.5 0 0 381.18 63.60
  L 378.65 60.72
  A 0.49 0.49 0.0 0 0 377.88 60.76
  L 376.85 62.19
  A 1.37 1.37 0.0 0 1 375.74 62.76
  L 367.41 62.76
  Q 366.85 62.76 366.79 62.21
  Q 366.35 58.50 367.27 55.36
  Q 367.33 55.14 367.10 55.13
  L 363.76 54.99
  Q 363.49 54.98 363.49 55.25
  L 363.47 72.06
  Q 363.47 72.56 362.97 72.64
  Q 358.56 73.36 355.30 71.67
  Q 354.70 71.36 354.70 72.04
  L 354.68 86.84
  Q 354.68 87.57 355.40 87.51
  Q 356.89 87.40 357.87 86.56
  Q 358.25 86.23 358.75 86.23
  L 375.31 86.24
  Q 375.87 86.24 376.18 86.71
  Q 377.00 87.98 378.80 87.21
  Q 379.32 86.98 379.32 86.41
  Q 379.31 81.71 379.34 75.90
  Q 379.34 74.79 380.04 73.91
  Q 380.41 73.44 379.97 73.03
  L 378.19 71.37
  Q 377.68 70.89 377.18 71.38
  L 376.25 72.30
  Q 375.79 72.75 375.14 72.75
  L 366.99 72.75
  Q 366.72 72.75 366.72 72.49
  L 366.74 64.46
  A 0.31 0.30 -1.0 0 1 367.04 64.16"
/>
<path stroke="#d4cdc6" vector-effect="non-scaling-stroke" d="
  M 163.51 73.22
  L 180.65 73.23
  A 0.60 0.59 -14.5 0 1 181.17 73.53
  Q 181.33 73.81 181.26 74.08
  Q 181.10 74.82 181.85 74.66
  Q 183.04 74.42 183.90 73.94
  Q 184.43 73.64 184.35 73.04
  Q 183.86 69.36 184.75 66.08
  Q 184.90 65.52 184.49 65.12
  L 183.16 63.82
  Q 182.72 63.38 182.23 63.77
  L 181.37 64.48
  Q 180.95 64.82 180.41 64.82
  L 163.74 64.84
  Q 163.07 64.84 162.47 64.54
  L 160.80 63.71
  Q 160.00 63.31 160.00 64.21
  L 160.00 86.94
  Q 160.00 87.49 160.55 87.48
  Q 162.11 87.46 163.21 86.50
  A 1.61 1.59 24.3 0 1 164.26 86.11
  L 180.34 86.06
  Q 180.93 86.06 181.22 86.57
  Q 181.30 86.71 181.29 86.88
  Q 181.22 87.65 181.98 87.48
  L 183.73 87.09
  Q 184.30 86.96 184.28 86.37
  Q 184.18 83.21 184.31 80.41
  C 184.33 80.11 184.54 79.63 184.75 79.41
  Q 185.19 78.95 184.74 78.50
  L 182.97 76.75
  A 0.56 0.56 0.0 0 0 182.11 76.83
  Q 181.70 77.45 181.03 77.83
  A 1.12 1.12 0.0 0 1 180.47 77.98
  L 163.47 77.96
  Q 163.24 77.96 163.24 77.72
  L 163.25 73.49
  Q 163.25 73.22 163.51 73.22"
/>
<path stroke="#d4cdc6" vector-effect="non-scaling-stroke" d="
  M 324.82 71.80
  Q 324.91 69.44 325.81 67.80
  Q 326.03 67.40 325.58 67.33
  L 322.64 66.91
  A 0.62 0.61 5.1 0 0 321.94 67.49
  L 321.80 71.68
  A 0.74 0.74 0.0 0 1 321.07 72.40
  L 314.39 72.46
  Q 313.97 72.46 314.01 72.88
  L 314.04 73.20
  Q 314.09 73.83 314.73 73.84
  L 320.95 73.89
  Q 321.45 73.89 321.37 74.38
  Q 319.86 83.28 312.08 87.61
  Q 312.00 87.65 312.04 87.73
  L 312.16 87.97
  Q 312.31 88.29 312.63 88.16
  Q 322.34 84.42 324.31 74.44
  Q 324.43 73.85 325.03 73.84
  L 330.49 73.81
  Q 331.00 73.81 331.00 74.32
  Q 330.99 79.61 329.81 84.51
  Q 329.32 86.56 323.51 85.27
  A 0.34 0.34 0.0 0 0 323.10 85.55
  L 323.05 85.81
  Q 322.91 86.64 323.73 86.83
  L 329.51 88.17
  A 2.36 2.36 0.0 0 0 332.33 86.48
  Q 333.69 81.40 333.81 75.19
  A 1.06 1.06 0.0 0 1 334.08 74.51
  L 334.76 73.77
  Q 335.21 73.28 334.72 72.84
  L 332.86 71.17
  A 0.78 0.78 0.0 0 0 331.76 71.23
  L 331.10 71.97
  Q 330.70 72.43 330.09 72.43
  L 325.42 72.43
  Q 324.79 72.43 324.82 71.80"
/>
<path stroke="#d4cdc6" vector-effect="non-scaling-stroke" d="
  M 214.07 74.86
  Q 213.82 74.76 213.75 75.02
  Q 211.96 81.29 208.03 86.43
  Q 207.75 86.80 208.00 87.19
  A 0.58 0.58 0.0 0 0 208.89 87.28
  Q 213.01 83.23 217.17 76.50
  Q 217.30 76.29 217.07 76.18
  L 214.07 74.86"
/>
<path stroke="#d4cdc6" vector-effect="non-scaling-stroke" d="
  M 229.33 75.41
  C 231.37 78.69 234.37 83.26 235.35 86.95
  A 0.56 0.56 0.0 0 0 236.22 87.25
  L 238.13 85.84
  Q 238.72 85.41 238.30 84.81
  Q 234.65 79.56 230.26 74.91
  A 0.50 0.50 0.0 0 0 229.54 74.91
  L 229.36 75.10
  Q 229.23 75.24 229.33 75.41"
/>
<path stroke="#d4cdc6" vector-effect="non-scaling-stroke" d="
  M 157.23 99.66
  L 159.49 99.62
  A 0.23 0.23 0.0 0 0 159.70 99.43
  L 159.75 99.16
  Q 159.79 98.91 159.54 98.87
  Q 157.43 98.54 155.69 99.14
  A 1.32 1.31 0.9 0 0 154.89 99.91
  C 153.60 103.14 155.94 104.32 158.40 105.32
  A 1.61 1.59 6.0 0 1 159.37 106.50
  C 159.57 107.58 159.16 108.77 157.95 108.77
  Q 156.50 108.78 154.99 108.82
  Q 154.66 108.82 154.57 109.13
  Q 154.45 109.54 154.86 109.61
  C 156.52 109.89 159.47 110.28 160.08 108.08
  C 160.88 105.15 158.53 104.28 156.46 103.33
  A 1.93 1.92 -33.2 0 1 157.23 99.66"
/>
<path stroke="#d4cdc6" vector-effect="non-scaling-stroke" d="
  M 172.25 108.78
  L 171.04 108.79
  Q 168.77 108.81 168.75 106.54
  L 168.69 98.99
  Q 168.69 98.80 168.49 98.80
  L 168.24 98.80
  Q 167.79 98.81 167.79 99.25
  L 167.77 106.51
  Q 167.76 109.76 171.01 109.74
  L 172.03 109.73
  Q 175.27 109.72 175.25 106.47
  L 175.22 99.05
  Q 175.21 98.80 174.96 98.82
  L 174.64 98.85
  A 0.38 0.38 0.0 0 0 174.29 99.23
  L 174.27 106.75
  Q 174.26 108.76 172.25 108.78"
/>
<path stroke="#d4cdc6" vector-effect="non-scaling-stroke" d="
  M 190.07 105.01
  Q 190.36 106.53 189.87 107.71
  Q 189.59 108.37 188.90 108.55
  Q 187.17 109.02 185.52 108.66
  A 1.89 1.89 0.0 0 1 184.03 106.79
  L 184.07 101.66
  A 2.05 2.05 0.0 0 1 186.08 99.63
  L 190.12 99.54
  Q 190.28 99.53 190.40 99.44
  Q 190.60 99.29 190.55 99.09
  Q 190.50 98.86 190.26 98.83
  C 187.95 98.61 183.58 98.32 183.35 101.39
  C 183.05 105.39 182.31 111.24 188.83 109.55
  C 191.24 108.93 191.28 106.28 191.08 104.29
  Q 191.04 103.87 190.64 103.80
  Q 189.21 103.57 187.95 103.93
  Q 187.17 104.16 187.95 104.38
  Q 188.69 104.58 189.42 104.52
  A 0.61 0.60 -7.8 0 1 190.07 105.01"
/>
<path stroke="#d4cdc6" vector-effect="non-scaling-stroke" d="
  M 204.00 105.91
  A 0.19 0.19 0.0 0 1 204.17 106.03
  L 205.53 109.74
  A 0.19 0.19 0.0 0 0 205.77 109.86
  L 206.19 109.71
  A 0.19 0.19 0.0 0 0 206.31 109.47
  L 202.37 97.99
  A 0.19 0.19 0.0 0 0 202.01 97.99
  L 198.04 109.39
  A 0.19 0.19 0.0 0 0 198.22 109.64
  L 198.73 109.66
  A 0.19 0.19 0.0 0 0 198.92 109.53
  L 200.05 105.98
  A 0.19 0.19 0.0 0 1 200.23 105.85
  L 204.00 105.91"
/>
<path stroke="#d4cdc6" vector-effect="non-scaling-stroke" d="
  M 219.27 101.62
  Q 220.34 105.18 221.35 109.12
  Q 221.48 109.62 222.00 109.69
  Q 222.56 109.76 222.69 109.21
  L 225.11 99.35
  Q 225.20 98.96 224.81 98.86
  L 224.50 98.79
  Q 224.31 98.75 224.27 98.94
  L 222.59 106.48
  Q 222.11 108.64 221.49 106.51
  L 219.45 99.56
  Q 218.93 97.78 218.41 99.56
  L 216.35 106.53
  Q 215.64 108.93 215.27 106.45
  Q 214.76 103.10 213.48 99.07
  Q 213.38 98.75 213.06 98.83
  L 212.80 98.90
  Q 212.59 98.96 212.65 99.16
  L 214.97 107.96
  Q 215.98 111.80 216.86 107.93
  Q 217.58 104.78 218.62 101.61
  Q 218.96 100.58 219.27 101.62"
/>
<path stroke="#d4cdc6" vector-effect="non-scaling-stroke" d="
  M 238.01 106.55
  L 239.05 109.66
  Q 239.10 109.81 239.10 109.81
  L 239.38 109.74
  Q 239.76 109.65 239.66 109.27
  Q 238.23 103.91 236.37 99.45
  Q 235.65 97.75 235.04 99.49
  L 231.56 109.33
  Q 231.42 109.72 231.84 109.72
  L 232.24 109.71
  Q 232.30 109.71 232.32 109.67
  Q 233.01 108.08 233.44 106.64
  Q 233.65 105.94 234.38 105.93
  L 237.06 105.88
  Q 237.78 105.87 238.01 106.55"
/>
<path stroke="#d4cdc6" vector-effect="non-scaling-stroke" d="
  M 248.74 104.79
  L 250.79 104.98
  Q 251.32 105.03 251.48 105.54
  L 252.74 109.54
  A 0.26 0.25 75.9 0 0 253.03 109.72
  L 253.39 109.64
  Q 253.53 109.62 253.49 109.47
  L 252.10 104.91
  Q 251.97 104.47 252.25 104.10
  Q 253.75 102.10 252.56 99.79
  Q 252.26 99.20 251.62 99.04
  Q 249.75 98.58 247.73 98.83
  Q 247.09 98.91 247.09 99.56
  L 247.07 109.43
  Q 247.07 109.72 247.35 109.70
  L 247.73 109.69
  Q 247.96 109.67 247.95 109.45
  L 247.94 105.51
  Q 247.94 104.71 248.74 104.79"
/>
<path stroke="#d4cdc6" vector-effect="non-scaling-stroke" d="
  M 266.19 105.94
  A 0.17 0.17 0.0 0 1 266.35 106.05
  L 267.58 109.63
  A 0.17 0.17 0.0 0 0 267.78 109.74
  L 268.26 109.62
  A 0.17 0.17 0.0 0 0 268.38 109.40
  L 264.45 97.98
  A 0.17 0.17 0.0 0 0 264.13 97.98
  L 260.09 109.36
  A 0.17 0.17 0.0 0 0 260.20 109.58
  L 260.63 109.72
  A 0.17 0.17 0.0 0 0 260.84 109.62
  L 262.25 105.94
  A 0.17 0.17 0.0 0 1 262.41 105.83
  L 266.19 105.94"
/>
<path stroke="#d4cdc6" vector-effect="non-scaling-stroke" d="
  M 285.90 104.35
  L 290.49 109.78
  A 0.36 0.35 42.4 0 0 291.05 109.76
  L 291.24 109.49
  Q 291.27 109.45 291.24 109.41
  L 287.18 104.64
  A 1.21 1.21 0.0 0 1 287.22 103.03
  L 290.94 99.08
  Q 291.03 98.98 290.93 98.89
  L 290.75 98.70
  Q 290.64 98.60 290.52 98.69
  Q 287.89 100.66 286.23 103.10
  Q 285.73 103.82 285.56 102.96
  Q 285.23 101.29 285.52 99.21
  Q 285.58 98.81 285.18 98.83
  L 284.82 98.85
  A 0.31 0.31 0.0 0 0 284.53 99.16
  L 284.52 109.23
  Q 284.52 109.72 285.02 109.69
  L 285.30 109.68
  Q 285.41 109.67 285.41 109.56
  L 285.49 104.50
  Q 285.49 103.87 285.90 104.35"
/>
<path stroke="#d4cdc6" vector-effect="non-scaling-stroke" d="
  M 306.7182 102.5887
  A 3.92 3.92 0.0 0 0 302.7710 98.6962
  L 301.6310 98.7041
  A 3.92 3.92 0.0 0 0 297.7385 102.6514
  L 297.7618 105.9913
  A 3.92 3.92 0.0 0 0 301.7090 109.8838
  L 302.8490 109.8759
  A 3.92 3.92 0.0 0 0 306.7415 105.9286
  L 306.7182 102.5887"
/>
<path stroke="#d4cdc6" vector-effect="non-scaling-stroke" d="
  M 319.45 107.47
  A 0.32 0.32 0.0 0 1 318.87 107.46
  Q 317.13 103.12 315.24 99.51
  Q 314.24 97.61 314.12 99.75
  Q 313.88 104.12 314.11 109.33
  Q 314.12 109.68 314.48 109.65
  L 314.76 109.63
  Q 315.03 109.61 315.02 109.33
  Q 314.83 105.74 315.21 102.21
  Q 315.32 101.20 315.71 102.14
  L 318.76 109.41
  A 0.45 0.45 0.0 0 0 319.58 109.41
  L 322.52 102.67
  Q 323.29 100.90 323.32 102.83
  L 323.42 109.55
  Q 323.42 109.66 323.53 109.66
  L 323.80 109.67
  Q 324.23 109.67 324.23 109.24
  L 324.28 100.55
  Q 324.30 96.68 322.71 100.21
  L 319.45 107.47"
/>
<path stroke="#d4cdc6" vector-effect="non-scaling-stroke" d="
  M 335.40 108.80
  Q 333.24 108.80 333.23 106.65
  L 333.19 99.26
  A 0.47 0.46 88.8 0 0 332.72 98.80
  L 332.44 98.80
  Q 332.31 98.81 332.30 98.93
  L 332.25 106.48
  Q 332.23 109.74 335.49 109.75
  L 336.38 109.75
  Q 339.53 109.76 339.52 106.62
  L 339.51 99.01
  Q 339.51 98.88 339.38 98.86
  L 339.13 98.82
  Q 338.78 98.77 338.78 99.12
  L 338.75 106.53
  Q 338.74 108.81 336.47 108.80
  L 335.40 108.80"
/>
<path stroke="#d4cdc6" vector-effect="non-scaling-stroke" d="
  M 351.24 99.59
  Q 352.33 99.41 353.53 99.75
  A 0.36 0.35 9.2 0 0 353.98 99.43
  L 353.99 99.02
  Q 354.00 98.75 353.73 98.75
  L 346.51 98.86
  Q 346.31 98.87 346.33 99.07
  L 346.36 99.36
  Q 346.38 99.46 346.48 99.47
  L 349.21 99.62
  Q 349.78 99.65 349.78 100.21
  L 349.77 109.26
  A 0.46 0.45 0.7 0 0 350.22 109.71
  L 350.47 109.71
  Q 350.68 109.71 350.68 109.51
  L 350.72 100.19
  Q 350.73 99.67 351.24 99.59"
/>
<path stroke="#d4cdc6" vector-effect="non-scaling-stroke" d="
  M 361.71 102.86
  L 361.68 100.52
  A 0.92 0.92 0.0 0 1 362.61 99.59
  L 365.79 99.61
  Q 365.96 99.61 365.97 99.44
  L 365.99 99.16
  Q 366.02 98.79 365.65 98.79
  L 361.48 98.79
  Q 360.74 98.79 360.74 99.53
  L 360.75 109.01
  Q 360.75 109.78 361.51 109.78
  L 365.76 109.80
  Q 366.13 109.80 366.23 109.43
  Q 366.27 109.27 366.18 109.15
  Q 366.01 108.91 365.71 108.90
  Q 363.98 108.82 362.49 108.99
  Q 361.62 109.09 361.64 108.22
  L 361.69 104.76
  Q 361.70 104.22 362.24 104.22
  L 365.49 104.23
  Q 365.66 104.23 365.65 104.07
  L 365.65 103.78
  Q 365.65 103.50 365.37 103.50
  L 362.36 103.50
  A 0.65 0.64 -0.0 0 1 361.71 102.86"
/>
<path stroke="#d4cdc6" vector-effect="non-scaling-stroke" d="
  M 374.55 101.71
  Q 374.56 100.29 375.31 101.49
  L 379.83 108.77
  Q 381.22 110.99 381.34 108.37
  Q 381.51 104.31 381.30 99.06
  Q 381.29 98.84 381.06 98.84
  L 380.81 98.84
  Q 380.44 98.85 380.44 99.21
  L 380.45 106.70
  Q 380.45 108.15 379.68 106.92
  L 375.04 99.54
  Q 373.59 97.24 373.63 99.96
  L 373.75 109.61
  Q 373.75 109.99 374.11 109.86
  L 374.35 109.78
  Q 374.50 109.73 374.50 109.58
  L 374.55 101.71"
/>
<path stroke="#d4cdc6" vector-effect="non-scaling-stroke" d="
  M 100.77 60.09
  A 0.42 0.42 0.0 0 0 100.35 59.67
  L 9.61 59.67
  A 0.42 0.42 0.0 0 0 9.19 60.09
  L 9.19 77.51
  A 0.42 0.42 0.0 0 0 9.61 77.93
  L 100.35 77.93
  A 0.42 0.42 0.0 0 0 100.77 77.51
  L 100.77 60.09"
/>
<path stroke="#d4cdc6" vector-effect="non-scaling-stroke" d="
  M 100.77 82.32
  A 0.52 0.52 0.0 0 0 100.25 81.80
  L 68.73 81.80
  A 0.52 0.52 0.0 0 0 68.21 82.32
  L 68.21 114.02
  A 0.52 0.52 0.0 0 0 68.73 114.54
  L 100.25 114.54
  A 0.52 0.52 0.0 0 0 100.77 114.02
  L 100.77 82.32"
/>
<path stroke="#d4cdc6" vector-effect="non-scaling-stroke" d="
  M 324.45 59.74
  A 0.76 0.76 0.0 0 0 325.74 59.64
  L 328.81 53.61
  A 0.76 0.76 0.0 0 0 328.14 52.50
  L 320.63 52.48
  A 0.76 0.76 0.0 0 0 320.01 53.69
  L 324.45 59.74"
/>
<path stroke="#d4cdc6" vector-effect="non-scaling-stroke" d="
  M 232.25 58.23
  A 0.45 0.45 0.0 0 0 231.80 57.78
  L 215.34 57.78
  A 0.45 0.45 0.0 0 0 214.89 58.23
  L 214.89 63.05
  A 0.45 0.45 0.0 0 0 215.34 63.50
  L 231.80 63.50
  A 0.45 0.45 0.0 0 0 232.25 63.05
  L 232.25 58.23"
/>
<path stroke="#d4cdc6" vector-effect="non-scaling-stroke" d="
  M 232.2459 65.2148
  A 0.48 0.48 0.0 0 0 231.7650 64.7357
  L 215.3451 64.7643
  A 0.48 0.48 0.0 0 0 214.8659 65.2452
  L 214.8741 69.9652
  A 0.48 0.48 0.0 0 0 215.3550 70.4443
  L 231.7749 70.4157
  A 0.48 0.48 0.0 0 0 232.2541 69.9348
  L 232.2459 65.2148"
/>
<path stroke="#d4cdc6" vector-effect="non-scaling-stroke" d="
  M 376.26 74.50
  A 0.26 0.26 0.0 0 0 376.00 74.24
  L 358.02 74.24
  A 0.26 0.26 0.0 0 0 357.76 74.50
  L 357.76 84.50
  A 0.26 0.26 0.0 0 0 358.02 84.76
  L 376.00 84.76
  A 0.26 0.26 0.0 0 0 376.26 84.50
  L 376.26 74.50"
/>
<path stroke="#d4cdc6" vector-effect="non-scaling-stroke" d="
  M 181.18 66.64
  A 0.36 0.36 0.0 0 0 180.82 66.28
  L 163.58 66.28
  A 0.36 0.36 0.0 0 0 163.22 66.64
  L 163.22 71.38
  A 0.36 0.36 0.0 0 0 163.58 71.74
  L 180.82 71.74
  A 0.36 0.36 0.0 0 0 181.18 71.38
  L 181.18 66.64"
/>
<path stroke="#d4cdc6" vector-effect="non-scaling-stroke" d="
  M 181.1860 79.7343
  A 0.35 0.35 0.0 0 0 180.8354 79.3850
  L 163.5954 79.4150
  A 0.35 0.35 0.0 0 0 163.2460 79.7657
  L 163.2540 84.3457
  A 0.35 0.35 0.0 0 0 163.6046 84.6950
  L 180.8446 84.6650
  A 0.35 0.35 0.0 0 0 181.1940 84.3143
  L 181.1860 79.7343"
/>
<path stroke="#d4cdc6" vector-effect="non-scaling-stroke" d="
  M 200.46 104.51
  A 0.38 0.38 0.0 0 0 200.80 105.02
  L 203.45 105.10
  A 0.38 0.38 0.0 0 0 203.82 104.61
  L 202.62 100.69
  A 0.38 0.38 0.0 0 0 201.90 100.67
  L 200.46 104.51"
/>
<path stroke="#d4cdc6" vector-effect="non-scaling-stroke" d="
  M 234.10 104.50
  A 0.42 0.42 0.0 0 0 234.49 105.05
  L 236.80 105.09
  A 0.49 0.49 0.0 0 0 237.28 104.44
  L 236.00 100.70
  Q 235.71 99.87 235.42 100.70
  L 234.10 104.50"
/>
<path stroke="#d4cdc6" vector-effect="non-scaling-stroke" d="
  M 247.95 100.07
  L 247.97 103.51
  A 0.59 0.59 0.0 0 0 248.56 104.10
  L 250.19 104.09
  A 2.06 1.90 -0.3 0 0 252.24 102.18
  L 252.24 101.36
  A 2.06 1.90 -0.3 0 0 250.17 99.47
  L 248.54 99.48
  A 0.59 0.59 0.0 0 0 247.95 100.07"
/>
<path stroke="#d4cdc6" vector-effect="non-scaling-stroke" d="
  M 262.56 104.68
  A 0.32 0.32 0.0 0 0 262.86 105.10
  L 265.59 105.16
  A 0.32 0.32 0.0 0 0 265.90 104.75
  L 264.62 100.49
  A 0.32 0.32 0.0 0 0 264.01 100.48
  L 262.56 104.68"
/>
<path stroke="#d4cdc6" vector-effect="non-scaling-stroke" d="
  M 305.78 102.42
  A 2.92 2.92 0.0 0 0 302.86 99.50
  L 301.56 99.50
  A 2.92 2.92 0.0 0 0 298.64 102.42
  L 298.64 106.02
  A 2.92 2.92 0.0 0 0 301.56 108.94
  L 302.86 108.94
  A 2.92 2.92 0.0 0 0 305.78 106.02
  L 305.78 102.42"
/>
</g>
<path fill="#a99b8e" d="
  M 0.00 0.00
  L 420.00 0.00
  L 420.00 154.00
  L 0.00 154.00
  L 0.00 0.00
  Z
  M 9.21 54.98
  L 9.20 45.57
  Q 9.20 45.01 9.70 44.77
  L 54.68 22.64
  A 0.71 0.68 44.1 0 1 55.31 22.64
  L 104.04 46.57
  Q 104.67 46.88 104.69 46.18
  L 104.74 43.22
  Q 104.75 42.62 104.20 42.35
  L 56.00 18.67
  A 2.28 2.27 44.6 0 0 53.99 18.68
  L 6.25 42.17
  A 1.75 1.75 0.0 0 0 5.27 43.74
  L 5.26 80.12
  A 1.68 1.68 0.0 0 0 6.94 81.80
  L 63.44 81.78
  A 0.91 0.90 90.0 0 1 64.34 82.69
  L 64.24 114.25
  A 0.25 0.25 0.0 0 1 63.99 114.50
  L 5.64 114.61
  Q 4.62 114.61 4.77 115.61
  L 4.98 116.99
  A 1.26 1.26 0.0 0 0 6.20 118.06
  C 11.00 118.14 15.97 118.49 20.75 118.49
  Q 61.56 118.50 102.28 118.48
  Q 104.72 118.47 104.72 116.03
  L 104.72 57.74
  A 1.98 1.98 0.0 0 0 102.74 55.76
  L 9.98 55.75
  Q 9.21 55.75 9.21 54.98
  Z
  M 331.78 52.31
  L 334.54 52.58
  Q 335.88 52.71 334.99 51.70
  L 332.81 49.22
  Q 332.28 48.62 331.80 49.26
  L 330.65 50.78
  Q 330.28 51.26 329.67 51.26
  L 321.77 51.20
  Q 321.01 51.20 321.33 50.50
  Q 322.22 48.53 323.80 47.55
  Q 324.28 47.25 323.79 46.98
  L 321.19 45.50
  Q 320.53 45.12 320.25 45.83
  Q 317.84 52.14 313.27 58.03
  Q 313.13 58.22 313.31 58.36
  L 313.56 58.55
  A 0.60 0.58 40.7 0 0 314.34 58.50
  L 318.61 54.02
  A 0.33 0.33 0.0 0 1 319.14 54.11
  Q 320.81 57.68 323.36 60.96
  A 0.87 0.87 0.0 0 1 323.28 62.13
  Q 319.83 65.41 315.07 67.88
  A 0.22 0.22 0.0 0 0 314.97 68.15
  L 315.10 68.47
  A 0.28 0.27 -20.9 0 0 315.44 68.62
  Q 320.24 66.99 324.41 63.67
  A 1.23 1.22 48.4 0 1 326.03 63.77
  Q 329.49 67.25 333.91 68.81
  A 0.65 0.64 -66.5 0 0 334.71 68.49
  L 335.70 66.53
  Q 336.01 65.92 335.35 65.74
  Q 331.08 64.56 327.36 61.91
  A 0.62 0.61 -50.0 0 1 327.28 60.97
  Q 329.63 58.58 331.20 55.49
  Q 331.48 54.92 332.03 54.61
  Q 332.71 54.23 332.58 53.49
  Q 332.51 53.06 332.08 53.03
  Q 331.78 53.00 331.56 52.71
  Q 331.20 52.25 331.78 52.31
  Z
  M 166.74 50.03
  Q 166.39 47.79 167.52 46.40
  Q 167.93 45.90 167.28 45.86
  L 164.20 45.68
  Q 163.55 45.65 163.55 46.30
  L 163.52 49.85
  Q 163.52 50.46 162.90 50.46
  L 153.95 50.49
  A 0.33 0.32 79.8 0 0 153.65 50.93
  L 153.80 51.35
  Q 153.94 51.74 154.36 51.74
  L 163.04 51.76
  Q 163.58 51.76 163.57 52.29
  L 163.53 55.85
  A 0.49 0.49 0.0 0 0 164.13 56.33
  L 165.95 55.90
  Q 166.77 55.70 166.77 54.85
  L 166.74 52.25
  A 0.51 0.50 -0.6 0 1 167.25 51.74
  L 177.01 51.76
  Q 177.74 51.77 177.74 52.51
  L 177.73 56.03
  Q 177.72 56.48 178.16 56.37
  L 180.30 55.83
  Q 180.78 55.71 180.79 55.21
  L 180.80 52.22
  Q 180.80 51.74 181.28 51.74
  L 190.68 51.74
  Q 191.46 51.74 190.95 51.15
  L 188.62 48.42
  Q 188.15 47.88 187.72 48.45
  L 186.64 49.92
  Q 186.26 50.43 185.62 50.44
  L 181.28 50.50
  Q 180.93 50.51 180.85 50.17
  Q 180.25 47.73 181.69 46.34
  Q 182.23 45.83 181.49 45.81
  L 178.27 45.72
  Q 177.73 45.70 177.73 46.24
  L 177.73 49.74
  Q 177.73 50.46 177.01 50.46
  L 167.28 50.49
  Q 166.81 50.49 166.74 50.03
  Z
  M 352.44 53.24
  L 381.80 53.24
  A 0.41 0.41 0.0 0 0 382.10 52.56
  L 379.74 49.98
  A 0.67 0.66 -47.1 0 0 378.72 50.02
  L 377.76 51.24
  Q 377.35 51.76 376.69 51.76
  L 367.47 51.75
  Q 366.85 51.75 366.76 51.15
  Q 366.31 48.15 367.37 46.50
  Q 367.76 45.90 367.05 45.86
  L 364.04 45.68
  Q 363.47 45.65 363.48 46.21
  L 363.49 51.26
  Q 363.49 51.75 362.99 51.75
  L 352.01 51.75
  A 1.63 1.61 -29.0 0 1 351.16 51.51
  L 349.23 50.32
  A 0.43 0.43 0.0 0 0 348.58 50.69
  C 348.85 63.07 349.48 75.79 344.64 87.29
  Q 344.52 87.58 344.79 87.72
  L 345.12 87.89
  A 0.52 0.51 27.8 0 0 345.81 87.68
  Q 351.29 77.50 351.65 65.83
  Q 351.84 59.73 351.70 54.00
  Q 351.68 53.24 352.44 53.24
  Z
  M 222.38 50.91
  L 221.31 55.76
  Q 221.22 56.20 220.77 56.27
  Q 215.92 57.07 212.09 55.27
  A 0.27 0.27 0.0 0 0 211.71 55.52
  L 211.70 72.54
  Q 211.70 73.19 212.34 73.11
  Q 213.83 72.93 214.97 72.13
  Q 215.52 71.75 216.20 71.74
  L 221.36 71.72
  Q 222.01 71.72 222.00 72.36
  L 221.98 85.09
  Q 221.97 85.92 221.15 85.84
  L 216.35 85.36
  A 0.32 0.31 2.4 0 0 216.00 85.68
  L 216.00 85.96
  Q 216.02 86.70 216.74 86.86
  L 222.93 88.25
  A 1.74 1.73 6.4 0 0 225.05 86.56
  L 225.06 72.45
  A 0.74 0.74 0.0 0 1 225.80 71.71
  L 231.28 71.75
  Q 231.82 71.75 232.09 72.23
  Q 232.88 73.66 234.81 72.70
  Q 235.33 72.44 235.32 71.87
  Q 235.30 65.85 235.36 59.33
  Q 235.37 58.41 236.10 57.79
  A 0.61 0.60 -42.8 0 0 236.14 56.90
  L 234.23 55.04
  Q 233.77 54.59 233.30 55.04
  L 232.30 55.99
  Q 231.87 56.41 231.26 56.41
  L 222.93 56.42
  A 0.13 0.13 0.0 0 1 222.82 56.23
  L 225.91 50.50
  Q 226.05 50.25 226.33 50.25
  L 238.24 50.24
  Q 239.33 50.24 238.59 49.45
  L 236.22 46.90
  Q 235.77 46.41 235.34 46.93
  L 234.19 48.35
  Q 233.85 48.76 233.31 48.76
  L 208.55 48.76
  Q 208.02 48.76 207.55 48.51
  L 205.42 47.34
  A 0.47 0.47 0.0 0 0 204.73 47.76
  Q 205.07 58.99 204.62 70.44
  Q 204.29 78.86 201.14 86.70
  A 0.36 0.36 0.0 0 0 201.37 87.17
  L 201.66 87.26
  Q 202.30 87.45 202.60 86.85
  Q 207.72 76.68 207.88 65.22
  Q 208.00 57.56 207.97 50.80
  Q 207.97 50.25 208.52 50.25
  L 221.84 50.24
  Q 222.52 50.24 222.38 50.91
  Z
  M 312.52 65.16
  L 308.42 72.34
  Q 308.35 72.48 308.49 72.53
  L 308.78 72.64
  A 0.49 0.48 31.6 0 0 309.31 72.52
  Q 312.57 69.14 315.51 65.56
  Q 316.17 64.75 317.16 64.31
  Q 317.64 64.10 317.28 63.72
  L 315.12 61.42
  Q 314.73 61.00 314.40 61.47
  Q 312.67 63.94 308.74 63.07
  Q 307.85 62.88 308.59 62.34
  L 309.47 61.70
  A 0.63 0.62 47.0 0 0 309.50 60.71
  L 307.26 58.84
  Q 306.53 58.22 307.16 57.50
  L 313.23 50.65
  A 2.48 2.28 -81.0 0 1 313.95 50.08
  L 314.70 49.71
  Q 315.26 49.43 314.82 49.00
  L 312.64 46.85
  A 0.64 0.63 35.7 0 0 311.63 47.01
  Q 310.90 48.46 309.26 48.46
  Q 303.76 48.45 298.22 48.47
  Q 297.72 48.47 297.81 48.96
  L 297.86 49.29
  Q 297.95 49.86 298.53 49.86
  L 309.68 49.89
  A 0.39 0.38 15.0 0 1 310.02 50.47
  L 306.18 57.06
  A 0.58 0.58 0.0 0 1 305.32 57.22
  Q 303.30 55.59 300.76 54.25
  Q 300.40 54.06 300.02 54.23
  Q 299.49 54.46 299.93 54.83
  Q 303.83 58.12 306.84 62.57
  A 0.42 0.42 0.0 0 1 306.49 63.22
  L 297.39 63.12
  A 0.39 0.39 0.0 0 0 297.00 63.55
  L 297.04 63.91
  Q 297.10 64.48 297.66 64.48
  L 303.30 64.50
  Q 304.01 64.50 303.81 65.17
  Q 301.41 73.48 295.95 81.05
  A 0.53 0.52 27.3 0 0 296.21 81.85
  L 296.45 81.93
  Q 296.57 81.97 296.66 81.88
  Q 301.31 76.83 304.29 70.90
  Q 304.80 69.86 304.80 71.02
  L 304.81 85.02
  Q 304.81 85.85 303.98 85.80
  L 299.77 85.56
  A 0.27 0.27 0.0 0 0 299.49 85.82
  L 299.48 86.25
  A 0.65 0.64 7.2 0 0 299.98 86.89
  L 305.76 88.24
  A 1.55 1.55 0.0 0 0 307.67 86.73
  L 307.73 65.00
  Q 307.73 64.47 308.25 64.48
  L 312.14 64.50
  Q 312.90 64.50 312.52 65.16
  Z
  M 266.01 83.26
  A 0.31 0.31 0.0 0 1 265.70 83.57
  L 249.52 83.60
  A 0.31 0.31 0.0 0 0 249.21 83.96
  L 249.34 84.78
  A 0.31 0.31 0.0 0 0 249.65 85.04
  L 285.81 85.04
  A 0.31 0.31 0.0 0 0 286.04 84.52
  L 283.41 81.55
  A 0.31 0.31 0.0 0 0 282.95 81.55
  L 281.23 83.47
  A 0.31 0.31 0.0 0 1 281.00 83.57
  L 269.41 83.62
  A 0.31 0.31 0.0 0 1 269.10 83.31
  L 269.11 53.58
  A 0.31 0.31 0.0 0 1 269.42 53.27
  L 283.42 53.21
  A 0.31 0.31 0.0 0 0 283.65 52.70
  L 280.92 49.64
  A 0.31 0.31 0.0 0 0 280.45 49.66
  L 278.87 51.62
  A 0.31 0.31 0.0 0 1 278.63 51.74
  L 251.79 51.77
  A 0.31 0.31 0.0 0 0 251.48 52.09
  L 251.51 52.93
  A 0.31 0.31 0.0 0 0 251.82 53.23
  L 265.69 53.25
  A 0.31 0.31 0.0 0 1 266.00 53.56
  L 266.01 83.26
  Z
  M 158.28 60.49
  L 186.52 60.49
  A 0.53 0.52 90.0 0 1 187.04 61.02
  L 187.00 66.69
  A 0.58 0.57 84.1 0 0 187.70 67.26
  L 189.50 66.86
  Q 190.16 66.72 190.17 66.04
  L 190.18 61.70
  Q 190.18 61.12 190.58 60.70
  L 190.98 60.27
  Q 191.30 59.91 190.95 59.59
  L 188.74 57.51
  Q 188.37 57.16 188.05 57.55
  L 187.13 58.69
  Q 186.68 59.24 185.97 59.24
  L 174.32 59.19
  Q 173.77 59.18 173.69 58.64
  Q 173.35 56.52 174.51 55.12
  Q 174.96 54.58 174.27 54.54
  L 171.24 54.35
  A 0.66 0.65 -88.4 0 0 170.55 55.01
  L 170.60 58.59
  A 0.58 0.58 0.0 0 1 170.04 59.17
  Q 164.19 59.29 158.47 59.17
  C 157.24 59.15 156.15 58.54 155.09 57.96
  Q 154.50 57.63 154.50 58.30
  L 154.50 66.70
  Q 154.50 67.43 155.21 67.26
  L 156.94 66.86
  Q 157.58 66.71 157.57 66.06
  L 157.56 61.22
  A 0.73 0.72 90.0 0 1 158.28 60.49
  Z
  M 367.04 64.16
  L 380.96 64.11
  A 0.31 0.30 68.5 0 0 381.18 63.60
  L 378.65 60.72
  A 0.49 0.49 0.0 0 0 377.88 60.76
  L 376.85 62.19
  A 1.37 1.37 0.0 0 1 375.74 62.76
  L 367.41 62.76
  Q 366.85 62.76 366.79 62.21
  Q 366.35 58.50 367.27 55.36
  Q 367.33 55.14 367.10 55.13
  L 363.76 54.99
  Q 363.49 54.98 363.49 55.25
  L 363.47 72.06
  Q 363.47 72.56 362.97 72.64
  Q 358.56 73.36 355.30 71.67
  Q 354.70 71.36 354.70 72.04
  L 354.68 86.84
  Q 354.68 87.57 355.40 87.51
  Q 356.89 87.40 357.87 86.56
  Q 358.25 86.23 358.75 86.23
  L 375.31 86.24
  Q 375.87 86.24 376.18 86.71
  Q 377.00 87.98 378.80 87.21
  Q 379.32 86.98 379.32 86.41
  Q 379.31 81.71 379.34 75.90
  Q 379.34 74.79 380.04 73.91
  Q 380.41 73.44 379.97 73.03
  L 378.19 71.37
  Q 377.68 70.89 377.18 71.38
  L 376.25 72.30
  Q 375.79 72.75 375.14 72.75
  L 366.99 72.75
  Q 366.72 72.75 366.72 72.49
  L 366.74 64.46
  A 0.31 0.30 -1.0 0 1 367.04 64.16
  Z
  M 163.51 73.22
  L 180.65 73.23
  A 0.60 0.59 -14.5 0 1 181.17 73.53
  Q 181.33 73.81 181.26 74.08
  Q 181.10 74.82 181.85 74.66
  Q 183.04 74.42 183.90 73.94
  Q 184.43 73.64 184.35 73.04
  Q 183.86 69.36 184.75 66.08
  Q 184.90 65.52 184.49 65.12
  L 183.16 63.82
  Q 182.72 63.38 182.23 63.77
  L 181.37 64.48
  Q 180.95 64.82 180.41 64.82
  L 163.74 64.84
  Q 163.07 64.84 162.47 64.54
  L 160.80 63.71
  Q 160.00 63.31 160.00 64.21
  L 160.00 86.94
  Q 160.00 87.49 160.55 87.48
  Q 162.11 87.46 163.21 86.50
  A 1.61 1.59 24.3 0 1 164.26 86.11
  L 180.34 86.06
  Q 180.93 86.06 181.22 86.57
  Q 181.30 86.71 181.29 86.88
  Q 181.22 87.65 181.98 87.48
  L 183.73 87.09
  Q 184.30 86.96 184.28 86.37
  Q 184.18 83.21 184.31 80.41
  C 184.33 80.11 184.54 79.63 184.75 79.41
  Q 185.19 78.95 184.74 78.50
  L 182.97 76.75
  A 0.56 0.56 0.0 0 0 182.11 76.83
  Q 181.70 77.45 181.03 77.83
  A 1.12 1.12 0.0 0 1 180.47 77.98
  L 163.47 77.96
  Q 163.24 77.96 163.24 77.72
  L 163.25 73.49
  Q 163.25 73.22 163.51 73.22
  Z
  M 324.82 71.80
  Q 324.91 69.44 325.81 67.80
  Q 326.03 67.40 325.58 67.33
  L 322.64 66.91
  A 0.62 0.61 5.1 0 0 321.94 67.49
  L 321.80 71.68
  A 0.74 0.74 0.0 0 1 321.07 72.40
  L 314.39 72.46
  Q 313.97 72.46 314.01 72.88
  L 314.04 73.20
  Q 314.09 73.83 314.73 73.84
  L 320.95 73.89
  Q 321.45 73.89 321.37 74.38
  Q 319.86 83.28 312.08 87.61
  Q 312.00 87.65 312.04 87.73
  L 312.16 87.97
  Q 312.31 88.29 312.63 88.16
  Q 322.34 84.42 324.31 74.44
  Q 324.43 73.85 325.03 73.84
  L 330.49 73.81
  Q 331.00 73.81 331.00 74.32
  Q 330.99 79.61 329.81 84.51
  Q 329.32 86.56 323.51 85.27
  A 0.34 0.34 0.0 0 0 323.10 85.55
  L 323.05 85.81
  Q 322.91 86.64 323.73 86.83
  L 329.51 88.17
  A 2.36 2.36 0.0 0 0 332.33 86.48
  Q 333.69 81.40 333.81 75.19
  A 1.06 1.06 0.0 0 1 334.08 74.51
  L 334.76 73.77
  Q 335.21 73.28 334.72 72.84
  L 332.86 71.17
  A 0.78 0.78 0.0 0 0 331.76 71.23
  L 331.10 71.97
  Q 330.70 72.43 330.09 72.43
  L 325.42 72.43
  Q 324.79 72.43 324.82 71.80
  Z
  M 214.07 74.86
  Q 213.82 74.76 213.75 75.02
  Q 211.96 81.29 208.03 86.43
  Q 207.75 86.80 208.00 87.19
  A 0.58 0.58 0.0 0 0 208.89 87.28
  Q 213.01 83.23 217.17 76.50
  Q 217.30 76.29 217.07 76.18
  L 214.07 74.86
  Z
  M 229.33 75.41
  C 231.37 78.69 234.37 83.26 235.35 86.95
  A 0.56 0.56 0.0 0 0 236.22 87.25
  L 238.13 85.84
  Q 238.72 85.41 238.30 84.81
  Q 234.65 79.56 230.26 74.91
  A 0.50 0.50 0.0 0 0 229.54 74.91
  L 229.36 75.10
  Q 229.23 75.24 229.33 75.41
  Z
  M 157.23 99.66
  L 159.49 99.62
  A 0.23 0.23 0.0 0 0 159.70 99.43
  L 159.75 99.16
  Q 159.79 98.91 159.54 98.87
  Q 157.43 98.54 155.69 99.14
  A 1.32 1.31 0.9 0 0 154.89 99.91
  C 153.60 103.14 155.94 104.32 158.40 105.32
  A 1.61 1.59 6.0 0 1 159.37 106.50
  C 159.57 107.58 159.16 108.77 157.95 108.77
  Q 156.50 108.78 154.99 108.82
  Q 154.66 108.82 154.57 109.13
  Q 154.45 109.54 154.86 109.61
  C 156.52 109.89 159.47 110.28 160.08 108.08
  C 160.88 105.15 158.53 104.28 156.46 103.33
  A 1.93 1.92 -33.2 0 1 157.23 99.66
  Z
  M 172.25 108.78
  L 171.04 108.79
  Q 168.77 108.81 168.75 106.54
  L 168.69 98.99
  Q 168.69 98.80 168.49 98.80
  L 168.24 98.80
  Q 167.79 98.81 167.79 99.25
  L 167.77 106.51
  Q 167.76 109.76 171.01 109.74
  L 172.03 109.73
  Q 175.27 109.72 175.25 106.47
  L 175.22 99.05
  Q 175.21 98.80 174.96 98.82
  L 174.64 98.85
  A 0.38 0.38 0.0 0 0 174.29 99.23
  L 174.27 106.75
  Q 174.26 108.76 172.25 108.78
  Z
  M 190.07 105.01
  Q 190.36 106.53 189.87 107.71
  Q 189.59 108.37 188.90 108.55
  Q 187.17 109.02 185.52 108.66
  A 1.89 1.89 0.0 0 1 184.03 106.79
  L 184.07 101.66
  A 2.05 2.05 0.0 0 1 186.08 99.63
  L 190.12 99.54
  Q 190.28 99.53 190.40 99.44
  Q 190.60 99.29 190.55 99.09
  Q 190.50 98.86 190.26 98.83
  C 187.95 98.61 183.58 98.32 183.35 101.39
  C 183.05 105.39 182.31 111.24 188.83 109.55
  C 191.24 108.93 191.28 106.28 191.08 104.29
  Q 191.04 103.87 190.64 103.80
  Q 189.21 103.57 187.95 103.93
  Q 187.17 104.16 187.95 104.38
  Q 188.69 104.58 189.42 104.52
  A 0.61 0.60 -7.8 0 1 190.07 105.01
  Z
  M 204.00 105.91
  A 0.19 0.19 0.0 0 1 204.17 106.03
  L 205.53 109.74
  A 0.19 0.19 0.0 0 0 205.77 109.86
  L 206.19 109.71
  A 0.19 0.19 0.0 0 0 206.31 109.47
  L 202.37 97.99
  A 0.19 0.19 0.0 0 0 202.01 97.99
  L 198.04 109.39
  A 0.19 0.19 0.0 0 0 198.22 109.64
  L 198.73 109.66
  A 0.19 0.19 0.0 0 0 198.92 109.53
  L 200.05 105.98
  A 0.19 0.19 0.0 0 1 200.23 105.85
  L 204.00 105.91
  Z
  M 219.27 101.62
  Q 220.34 105.18 221.35 109.12
  Q 221.48 109.62 222.00 109.69
  Q 222.56 109.76 222.69 109.21
  L 225.11 99.35
  Q 225.20 98.96 224.81 98.86
  L 224.50 98.79
  Q 224.31 98.75 224.27 98.94
  L 222.59 106.48
  Q 222.11 108.64 221.49 106.51
  L 219.45 99.56
  Q 218.93 97.78 218.41 99.56
  L 216.35 106.53
  Q 215.64 108.93 215.27 106.45
  Q 214.76 103.10 213.48 99.07
  Q 213.38 98.75 213.06 98.83
  L 212.80 98.90
  Q 212.59 98.96 212.65 99.16
  L 214.97 107.96
  Q 215.98 111.80 216.86 107.93
  Q 217.58 104.78 218.62 101.61
  Q 218.96 100.58 219.27 101.62
  Z
  M 238.01 106.55
  L 239.05 109.66
  Q 239.10 109.81 239.10 109.81
  L 239.38 109.74
  Q 239.76 109.65 239.66 109.27
  Q 238.23 103.91 236.37 99.45
  Q 235.65 97.75 235.04 99.49
  L 231.56 109.33
  Q 231.42 109.72 231.84 109.72
  L 232.24 109.71
  Q 232.30 109.71 232.32 109.67
  Q 233.01 108.08 233.44 106.64
  Q 233.65 105.94 234.38 105.93
  L 237.06 105.88
  Q 237.78 105.87 238.01 106.55
  Z
  M 248.74 104.79
  L 250.79 104.98
  Q 251.32 105.03 251.48 105.54
  L 252.74 109.54
  A 0.26 0.25 75.9 0 0 253.03 109.72
  L 253.39 109.64
  Q 253.53 109.62 253.49 109.47
  L 252.10 104.91
  Q 251.97 104.47 252.25 104.10
  Q 253.75 102.10 252.56 99.79
  Q 252.26 99.20 251.62 99.04
  Q 249.75 98.58 247.73 98.83
  Q 247.09 98.91 247.09 99.56
  L 247.07 109.43
  Q 247.07 109.72 247.35 109.70
  L 247.73 109.69
  Q 247.96 109.67 247.95 109.45
  L 247.94 105.51
  Q 247.94 104.71 248.74 104.79
  Z
  M 266.19 105.94
  A 0.17 0.17 0.0 0 1 266.35 106.05
  L 267.58 109.63
  A 0.17 0.17 0.0 0 0 267.78 109.74
  L 268.26 109.62
  A 0.17 0.17 0.0 0 0 268.38 109.40
  L 264.45 97.98
  A 0.17 0.17 0.0 0 0 264.13 97.98
  L 260.09 109.36
  A 0.17 0.17 0.0 0 0 260.20 109.58
  L 260.63 109.72
  A 0.17 0.17 0.0 0 0 260.84 109.62
  L 262.25 105.94
  A 0.17 0.17 0.0 0 1 262.41 105.83
  L 266.19 105.94
  Z
  M 285.90 104.35
  L 290.49 109.78
  A 0.36 0.35 42.4 0 0 291.05 109.76
  L 291.24 109.49
  Q 291.27 109.45 291.24 109.41
  L 287.18 104.64
  A 1.21 1.21 0.0 0 1 287.22 103.03
  L 290.94 99.08
  Q 291.03 98.98 290.93 98.89
  L 290.75 98.70
  Q 290.64 98.60 290.52 98.69
  Q 287.89 100.66 286.23 103.10
  Q 285.73 103.82 285.56 102.96
  Q 285.23 101.29 285.52 99.21
  Q 285.58 98.81 285.18 98.83
  L 284.82 98.85
  A 0.31 0.31 0.0 0 0 284.53 99.16
  L 284.52 109.23
  Q 284.52 109.72 285.02 109.69
  L 285.30 109.68
  Q 285.41 109.67 285.41 109.56
  L 285.49 104.50
  Q 285.49 103.87 285.90 104.35
  Z
  M 306.7182 102.5887
  A 3.92 3.92 0.0 0 0 302.7710 98.6962
  L 301.6310 98.7041
  A 3.92 3.92 0.0 0 0 297.7385 102.6514
  L 297.7618 105.9913
  A 3.92 3.92 0.0 0 0 301.7090 109.8838
  L 302.8490 109.8759
  A 3.92 3.92 0.0 0 0 306.7415 105.9286
  L 306.7182 102.5887
  Z
  M 319.45 107.47
  A 0.32 0.32 0.0 0 1 318.87 107.46
  Q 317.13 103.12 315.24 99.51
  Q 314.24 97.61 314.12 99.75
  Q 313.88 104.12 314.11 109.33
  Q 314.12 109.68 314.48 109.65
  L 314.76 109.63
  Q 315.03 109.61 315.02 109.33
  Q 314.83 105.74 315.21 102.21
  Q 315.32 101.20 315.71 102.14
  L 318.76 109.41
  A 0.45 0.45 0.0 0 0 319.58 109.41
  L 322.52 102.67
  Q 323.29 100.90 323.32 102.83
  L 323.42 109.55
  Q 323.42 109.66 323.53 109.66
  L 323.80 109.67
  Q 324.23 109.67 324.23 109.24
  L 324.28 100.55
  Q 324.30 96.68 322.71 100.21
  L 319.45 107.47
  Z
  M 335.40 108.80
  Q 333.24 108.80 333.23 106.65
  L 333.19 99.26
  A 0.47 0.46 88.8 0 0 332.72 98.80
  L 332.44 98.80
  Q 332.31 98.81 332.30 98.93
  L 332.25 106.48
  Q 332.23 109.74 335.49 109.75
  L 336.38 109.75
  Q 339.53 109.76 339.52 106.62
  L 339.51 99.01
  Q 339.51 98.88 339.38 98.86
  L 339.13 98.82
  Q 338.78 98.77 338.78 99.12
  L 338.75 106.53
  Q 338.74 108.81 336.47 108.80
  L 335.40 108.80
  Z
  M 351.24 99.59
  Q 352.33 99.41 353.53 99.75
  A 0.36 0.35 9.2 0 0 353.98 99.43
  L 353.99 99.02
  Q 354.00 98.75 353.73 98.75
  L 346.51 98.86
  Q 346.31 98.87 346.33 99.07
  L 346.36 99.36
  Q 346.38 99.46 346.48 99.47
  L 349.21 99.62
  Q 349.78 99.65 349.78 100.21
  L 349.77 109.26
  A 0.46 0.45 0.7 0 0 350.22 109.71
  L 350.47 109.71
  Q 350.68 109.71 350.68 109.51
  L 350.72 100.19
  Q 350.73 99.67 351.24 99.59
  Z
  M 361.71 102.86
  L 361.68 100.52
  A 0.92 0.92 0.0 0 1 362.61 99.59
  L 365.79 99.61
  Q 365.96 99.61 365.97 99.44
  L 365.99 99.16
  Q 366.02 98.79 365.65 98.79
  L 361.48 98.79
  Q 360.74 98.79 360.74 99.53
  L 360.75 109.01
  Q 360.75 109.78 361.51 109.78
  L 365.76 109.80
  Q 366.13 109.80 366.23 109.43
  Q 366.27 109.27 366.18 109.15
  Q 366.01 108.91 365.71 108.90
  Q 363.98 108.82 362.49 108.99
  Q 361.62 109.09 361.64 108.22
  L 361.69 104.76
  Q 361.70 104.22 362.24 104.22
  L 365.49 104.23
  Q 365.66 104.23 365.65 104.07
  L 365.65 103.78
  Q 365.65 103.50 365.37 103.50
  L 362.36 103.50
  A 0.65 0.64 -0.0 0 1 361.71 102.86
  Z
  M 374.55 101.71
  Q 374.56 100.29 375.31 101.49
  L 379.83 108.77
  Q 381.22 110.99 381.34 108.37
  Q 381.51 104.31 381.30 99.06
  Q 381.29 98.84 381.06 98.84
  L 380.81 98.84
  Q 380.44 98.85 380.44 99.21
  L 380.45 106.70
  Q 380.45 108.15 379.68 106.92
  L 375.04 99.54
  Q 373.59 97.24 373.63 99.96
  L 373.75 109.61
  Q 373.75 109.99 374.11 109.86
  L 374.35 109.78
  Q 374.50 109.73 374.50 109.58
  L 374.55 101.71
  Z"
/>
<path fill="#fffffe" d="
  M 9.98 55.75
  L 102.74 55.76
  A 1.98 1.98 0.0 0 1 104.72 57.74
  L 104.72 116.03
  Q 104.72 118.47 102.28 118.48
  Q 61.56 118.50 20.75 118.49
  C 15.97 118.49 11.00 118.14 6.20 118.06
  A 1.26 1.26 0.0 0 1 4.98 116.99
  L 4.77 115.61
  Q 4.62 114.61 5.64 114.61
  L 63.99 114.50
  A 0.25 0.25 0.0 0 0 64.24 114.25
  L 64.34 82.69
  A 0.91 0.90 -90.0 0 0 63.44 81.78
  L 6.94 81.80
  A 1.68 1.68 0.0 0 1 5.26 80.12
  L 5.27 43.74
  A 1.75 1.75 0.0 0 1 6.25 42.17
  L 53.99 18.68
  A 2.28 2.27 44.6 0 1 56.00 18.67
  L 104.20 42.35
  Q 104.75 42.62 104.74 43.22
  L 104.69 46.18
  Q 104.67 46.88 104.04 46.57
  L 55.31 22.64
  A 0.71 0.68 44.1 0 0 54.68 22.64
  L 9.70 44.77
  Q 9.20 45.01 9.20 45.57
  L 9.21 54.98
  Q 9.21 55.75 9.98 55.75
  Z
  M 100.77 60.09
  A 0.42 0.42 0.0 0 0 100.35 59.67
  L 9.61 59.67
  A 0.42 0.42 0.0 0 0 9.19 60.09
  L 9.19 77.51
  A 0.42 0.42 0.0 0 0 9.61 77.93
  L 100.35 77.93
  A 0.42 0.42 0.0 0 0 100.77 77.51
  L 100.77 60.09
  Z
  M 100.77 82.32
  A 0.52 0.52 0.0 0 0 100.25 81.80
  L 68.73 81.80
  A 0.52 0.52 0.0 0 0 68.21 82.32
  L 68.21 114.02
  A 0.52 0.52 0.0 0 0 68.73 114.54
  L 100.25 114.54
  A 0.52 0.52 0.0 0 0 100.77 114.02
  L 100.77 82.32
  Z"
/>
<path fill="#fffffe" d="
  M 331.56 52.71
  Q 331.78 53.00 332.08 53.03
  Q 332.51 53.06 332.58 53.49
  Q 332.71 54.23 332.03 54.61
  Q 331.48 54.92 331.20 55.49
  Q 329.63 58.58 327.28 60.97
  A 0.62 0.61 -50.0 0 0 327.36 61.91
  Q 331.08 64.56 335.35 65.74
  Q 336.01 65.92 335.70 66.53
  L 334.71 68.49
  A 0.65 0.64 -66.5 0 1 333.91 68.81
  Q 329.49 67.25 326.03 63.77
  A 1.23 1.22 48.4 0 0 324.41 63.67
  Q 320.24 66.99 315.44 68.62
  A 0.28 0.27 -20.9 0 1 315.10 68.47
  L 314.97 68.15
  A 0.22 0.22 0.0 0 1 315.07 67.88
  Q 319.83 65.41 323.28 62.13
  A 0.87 0.87 0.0 0 0 323.36 60.96
  Q 320.81 57.68 319.14 54.11
  A 0.33 0.33 0.0 0 0 318.61 54.02
  L 314.34 58.50
  A 0.60 0.58 40.7 0 1 313.56 58.55
  L 313.31 58.36
  Q 313.13 58.22 313.27 58.03
  Q 317.84 52.14 320.25 45.83
  Q 320.53 45.12 321.19 45.50
  L 323.79 46.98
  Q 324.28 47.25 323.80 47.55
  Q 322.22 48.53 321.33 50.50
  Q 321.01 51.20 321.77 51.20
  L 329.67 51.26
  Q 330.28 51.26 330.65 50.78
  L 331.80 49.26
  Q 332.28 48.62 332.81 49.22
  L 334.99 51.70
  Q 335.88 52.71 334.54 52.58
  L 331.78 52.31
  Q 331.20 52.25 331.56 52.71
  Z
  M 324.45 59.74
  A 0.76 0.76 0.0 0 0 325.74 59.64
  L 328.81 53.61
  A 0.76 0.76 0.0 0 0 328.14 52.50
  L 320.63 52.48
  A 0.76 0.76 0.0 0 0 320.01 53.69
  L 324.45 59.74
  Z"
/>
<path fill="#fffffe" d="
  M 167.28 50.49
  L 177.01 50.46
  Q 177.73 50.46 177.73 49.74
  L 177.73 46.24
  Q 177.73 45.70 178.27 45.72
  L 181.49 45.81
  Q 182.23 45.83 181.69 46.34
  Q 180.25 47.73 180.85 50.17
  Q 180.93 50.51 181.28 50.50
  L 185.62 50.44
  Q 186.26 50.43 186.64 49.92
  L 187.72 48.45
  Q 188.15 47.88 188.62 48.42
  L 190.95 51.15
  Q 191.46 51.74 190.68 51.74
  L 181.28 51.74
  Q 180.80 51.74 180.80 52.22
  L 180.79 55.21
  Q 180.78 55.71 180.30 55.83
  L 178.16 56.37
  Q 177.72 56.48 177.73 56.03
  L 177.74 52.51
  Q 177.74 51.77 177.01 51.76
  L 167.25 51.74
  A 0.51 0.50 -0.6 0 0 166.74 52.25
  L 166.77 54.85
  Q 166.77 55.70 165.95 55.90
  L 164.13 56.33
  A 0.49 0.49 0.0 0 1 163.53 55.85
  L 163.57 52.29
  Q 163.58 51.76 163.04 51.76
  L 154.36 51.74
  Q 153.94 51.74 153.80 51.35
  L 153.65 50.93
  A 0.33 0.32 79.8 0 1 153.95 50.49
  L 162.90 50.46
  Q 163.52 50.46 163.52 49.85
  L 163.55 46.30
  Q 163.55 45.65 164.20 45.68
  L 167.28 45.86
  Q 167.93 45.90 167.52 46.40
  Q 166.39 47.79 166.74 50.03
  Q 166.81 50.49 167.28 50.49
  Z"
/>
<path fill="#fffffe" d="
  M 351.70 54.00
  Q 351.84 59.73 351.65 65.83
  Q 351.29 77.50 345.81 87.68
  A 0.52 0.51 27.8 0 1 345.12 87.89
  L 344.79 87.72
  Q 344.52 87.58 344.64 87.29
  C 349.48 75.79 348.85 63.07 348.58 50.69
  A 0.43 0.43 0.0 0 1 349.23 50.32
  L 351.16 51.51
  A 1.63 1.61 -29.0 0 0 352.01 51.75
  L 362.99 51.75
  Q 363.49 51.75 363.49 51.26
  L 363.48 46.21
  Q 363.47 45.65 364.04 45.68
  L 367.05 45.86
  Q 367.76 45.90 367.37 46.50
  Q 366.31 48.15 366.76 51.15
  Q 366.85 51.75 367.47 51.75
  L 376.69 51.76
  Q 377.35 51.76 377.76 51.24
  L 378.72 50.02
  A 0.67 0.66 -47.1 0 1 379.74 49.98
  L 382.10 52.56
  A 0.41 0.41 0.0 0 1 381.80 53.24
  L 352.44 53.24
  Q 351.68 53.24 351.70 54.00
  Z"
/>
<path fill="#fffffe" d="
  M 221.84 50.24
  L 208.52 50.25
  Q 207.97 50.25 207.97 50.80
  Q 208.00 57.56 207.88 65.22
  Q 207.72 76.68 202.60 86.85
  Q 202.30 87.45 201.66 87.26
  L 201.37 87.17
  A 0.36 0.36 0.0 0 1 201.14 86.70
  Q 204.29 78.86 204.62 70.44
  Q 205.07 58.99 204.73 47.76
  A 0.47 0.47 0.0 0 1 205.42 47.34
  L 207.55 48.51
  Q 208.02 48.76 208.55 48.76
  L 233.31 48.76
  Q 233.85 48.76 234.19 48.35
  L 235.34 46.93
  Q 235.77 46.41 236.22 46.90
  L 238.59 49.45
  Q 239.33 50.24 238.24 50.24
  L 226.33 50.25
  Q 226.05 50.25 225.91 50.50
  L 222.82 56.23
  A 0.13 0.13 0.0 0 0 222.93 56.42
  L 231.26 56.41
  Q 231.87 56.41 232.30 55.99
  L 233.30 55.04
  Q 233.77 54.59 234.23 55.04
  L 236.14 56.90
  A 0.61 0.60 -42.8 0 1 236.10 57.79
  Q 235.37 58.41 235.36 59.33
  Q 235.30 65.85 235.32 71.87
  Q 235.33 72.44 234.81 72.70
  Q 232.88 73.66 232.09 72.23
  Q 231.82 71.75 231.28 71.75
  L 225.80 71.71
  A 0.74 0.74 0.0 0 0 225.06 72.45
  L 225.05 86.56
  A 1.74 1.73 6.4 0 1 222.93 88.25
  L 216.74 86.86
  Q 216.02 86.70 216.00 85.96
  L 216.00 85.68
  A 0.32 0.31 2.4 0 1 216.35 85.36
  L 221.15 85.84
  Q 221.97 85.92 221.98 85.09
  L 222.00 72.36
  Q 222.01 71.72 221.36 71.72
  L 216.20 71.74
  Q 215.52 71.75 214.97 72.13
  Q 213.83 72.93 212.34 73.11
  Q 211.70 73.19 211.70 72.54
  L 211.71 55.52
  A 0.27 0.27 0.0 0 1 212.09 55.27
  Q 215.92 57.07 220.77 56.27
  Q 221.22 56.20 221.31 55.76
  L 222.38 50.91
  Q 222.52 50.24 221.84 50.24
  Z
  M 232.25 58.23
  A 0.45 0.45 0.0 0 0 231.80 57.78
  L 215.34 57.78
  A 0.45 0.45 0.0 0 0 214.89 58.23
  L 214.89 63.05
  A 0.45 0.45 0.0 0 0 215.34 63.50
  L 231.80 63.50
  A 0.45 0.45 0.0 0 0 232.25 63.05
  L 232.25 58.23
  Z
  M 232.2459 65.2148
  A 0.48 0.48 0.0 0 0 231.7650 64.7357
  L 215.3451 64.7643
  A 0.48 0.48 0.0 0 0 214.8659 65.2452
  L 214.8741 69.9652
  A 0.48 0.48 0.0 0 0 215.3550 70.4443
  L 231.7749 70.4157
  A 0.48 0.48 0.0 0 0 232.2541 69.9348
  L 232.2459 65.2148
  Z"
/>
<path fill="#fffffe" d="
  M 312.14 64.50
  L 308.25 64.48
  Q 307.73 64.47 307.73 65.00
  L 307.67 86.73
  A 1.55 1.55 0.0 0 1 305.76 88.24
  L 299.98 86.89
  A 0.65 0.64 7.2 0 1 299.48 86.25
  L 299.49 85.82
  A 0.27 0.27 0.0 0 1 299.77 85.56
  L 303.98 85.80
  Q 304.81 85.85 304.81 85.02
  L 304.80 71.02
  Q 304.80 69.86 304.29 70.90
  Q 301.31 76.83 296.66 81.88
  Q 296.57 81.97 296.45 81.93
  L 296.21 81.85
  A 0.53 0.52 27.3 0 1 295.95 81.05
  Q 301.41 73.48 303.81 65.17
  Q 304.01 64.50 303.30 64.50
  L 297.66 64.48
  Q 297.10 64.48 297.04 63.91
  L 297.00 63.55
  A 0.39 0.39 0.0 0 1 297.39 63.12
  L 306.49 63.22
  A 0.42 0.42 0.0 0 0 306.84 62.57
  Q 303.83 58.12 299.93 54.83
  Q 299.49 54.46 300.02 54.23
  Q 300.40 54.06 300.76 54.25
  Q 303.30 55.59 305.32 57.22
  A 0.58 0.58 0.0 0 0 306.18 57.06
  L 310.02 50.47
  A 0.39 0.38 15.0 0 0 309.68 49.89
  L 298.53 49.86
  Q 297.95 49.86 297.86 49.29
  L 297.81 48.96
  Q 297.72 48.47 298.22 48.47
  Q 303.76 48.45 309.26 48.46
  Q 310.90 48.46 311.63 47.01
  A 0.64 0.63 35.7 0 1 312.64 46.85
  L 314.82 49.00
  Q 315.26 49.43 314.70 49.71
  L 313.95 50.08
  A 2.48 2.28 -81.0 0 0 313.23 50.65
  L 307.16 57.50
  Q 306.53 58.22 307.26 58.84
  L 309.50 60.71
  A 0.63 0.62 47.0 0 1 309.47 61.70
  L 308.59 62.34
  Q 307.85 62.88 308.74 63.07
  Q 312.67 63.94 314.40 61.47
  Q 314.73 61.00 315.12 61.42
  L 317.28 63.72
  Q 317.64 64.10 317.16 64.31
  Q 316.17 64.75 315.51 65.56
  Q 312.57 69.14 309.31 72.52
  A 0.49 0.48 31.6 0 1 308.78 72.64
  L 308.49 72.53
  Q 308.35 72.48 308.42 72.34
  L 312.52 65.16
  Q 312.90 64.50 312.14 64.50
  Z"
/>
<path fill="#fffffe" d="
  M 266.01 83.26
  L 266.00 53.56
  A 0.31 0.31 0.0 0 0 265.69 53.25
  L 251.82 53.23
  A 0.31 0.31 0.0 0 1 251.51 52.93
  L 251.48 52.09
  A 0.31 0.31 0.0 0 1 251.79 51.77
  L 278.63 51.74
  A 0.31 0.31 0.0 0 0 278.87 51.62
  L 280.45 49.66
  A 0.31 0.31 0.0 0 1 280.92 49.64
  L 283.65 52.70
  A 0.31 0.31 0.0 0 1 283.42 53.21
  L 269.42 53.27
  A 0.31 0.31 0.0 0 0 269.11 53.58
  L 269.10 83.31
  A 0.31 0.31 0.0 0 0 269.41 83.62
  L 281.00 83.57
  A 0.31 0.31 0.0 0 0 281.23 83.47
  L 282.95 81.55
  A 0.31 0.31 0.0 0 1 283.41 81.55
  L 286.04 84.52
  A 0.31 0.31 0.0 0 1 285.81 85.04
  L 249.65 85.04
  A 0.31 0.31 0.0 0 1 249.34 84.78
  L 249.21 83.96
  A 0.31 0.31 0.0 0 1 249.52 83.60
  L 265.70 83.57
  A 0.31 0.31 0.0 0 0 266.01 83.26
  Z"
/>
<path fill="#a99b8e" d="
  M 324.45 59.74
  L 320.01 53.69
  A 0.76 0.76 0.0 0 1 320.63 52.48
  L 328.14 52.50
  A 0.76 0.76 0.0 0 1 328.81 53.61
  L 325.74 59.64
  A 0.76 0.76 0.0 0 1 324.45 59.74
  Z"
/>
<path fill="#fffffe" d="
  M 157.56 61.22
  L 157.57 66.06
  Q 157.58 66.71 156.94 66.86
  L 155.21 67.26
  Q 154.50 67.43 154.50 66.70
  L 154.50 58.30
  Q 154.50 57.63 155.09 57.96
  C 156.15 58.54 157.24 59.15 158.47 59.17
  Q 164.19 59.29 170.04 59.17
  A 0.58 0.58 0.0 0 0 170.60 58.59
  L 170.55 55.01
  A 0.66 0.65 -88.4 0 1 171.24 54.35
  L 174.27 54.54
  Q 174.96 54.58 174.51 55.12
  Q 173.35 56.52 173.69 58.64
  Q 173.77 59.18 174.32 59.19
  L 185.97 59.24
  Q 186.68 59.24 187.13 58.69
  L 188.05 57.55
  Q 188.37 57.16 188.74 57.51
  L 190.95 59.59
  Q 191.30 59.91 190.98 60.27
  L 190.58 60.70
  Q 190.18 61.12 190.18 61.70
  L 190.17 66.04
  Q 190.16 66.72 189.50 66.86
  L 187.70 67.26
  A 0.58 0.57 84.1 0 1 187.00 66.69
  L 187.04 61.02
  A 0.53 0.52 90.0 0 0 186.52 60.49
  L 158.28 60.49
  A 0.73 0.72 90.0 0 0 157.56 61.22
  Z"
/>
<path fill="#fffffe" d="
  M 367.04 64.16
  A 0.31 0.30 -1.0 0 0 366.74 64.46
  L 366.72 72.49
  Q 366.72 72.75 366.99 72.75
  L 375.14 72.75
  Q 375.79 72.75 376.25 72.30
  L 377.18 71.38
  Q 377.68 70.89 378.19 71.37
  L 379.97 73.03
  Q 380.41 73.44 380.04 73.91
  Q 379.34 74.79 379.34 75.90
  Q 379.31 81.71 379.32 86.41
  Q 379.32 86.98 378.80 87.21
  Q 377.00 87.98 376.18 86.71
  Q 375.87 86.24 375.31 86.24
  L 358.75 86.23
  Q 358.25 86.23 357.87 86.56
  Q 356.89 87.40 355.40 87.51
  Q 354.68 87.57 354.68 86.84
  L 354.70 72.04
  Q 354.70 71.36 355.30 71.67
  Q 358.56 73.36 362.97 72.64
  Q 363.47 72.56 363.47 72.06
  L 363.49 55.25
  Q 363.49 54.98 363.76 54.99
  L 367.10 55.13
  Q 367.33 55.14 367.27 55.36
  Q 366.35 58.50 366.79 62.21
  Q 366.85 62.76 367.41 62.76
  L 375.74 62.76
  A 1.37 1.37 0.0 0 0 376.85 62.19
  L 377.88 60.76
  A 0.49 0.49 0.0 0 1 378.65 60.72
  L 381.18 63.60
  A 0.31 0.30 68.5 0 1 380.96 64.11
  L 367.04 64.16
  Z
  M 376.26 74.50
  A 0.26 0.26 0.0 0 0 376.00 74.24
  L 358.02 74.24
  A 0.26 0.26 0.0 0 0 357.76 74.50
  L 357.76 84.50
  A 0.26 0.26 0.0 0 0 358.02 84.76
  L 376.00 84.76
  A 0.26 0.26 0.0 0 0 376.26 84.50
  L 376.26 74.50
  Z"
/>
<rect fill="#a99b8e" x="214.89" y="57.78" width="17.36" height="5.72" rx="0.45"/>
<rect fill="#a99b8e" x="9.19" y="59.67" width="91.58" height="18.26" rx="0.42"/>
<path fill="#fffffe" d="
  M 163.51 73.22
  Q 163.25 73.22 163.25 73.49
  L 163.24 77.72
  Q 163.24 77.96 163.47 77.96
  L 180.47 77.98
  A 1.12 1.12 0.0 0 0 181.03 77.83
  Q 181.70 77.45 182.11 76.83
  A 0.56 0.56 0.0 0 1 182.97 76.75
  L 184.74 78.50
  Q 185.19 78.95 184.75 79.41
  C 184.54 79.63 184.33 80.11 184.31 80.41
  Q 184.18 83.21 184.28 86.37
  Q 184.30 86.96 183.73 87.09
  L 181.98 87.48
  Q 181.22 87.65 181.29 86.88
  Q 181.30 86.71 181.22 86.57
  Q 180.93 86.06 180.34 86.06
  L 164.26 86.11
  A 1.61 1.59 24.3 0 0 163.21 86.50
  Q 162.11 87.46 160.55 87.48
  Q 160.00 87.49 160.00 86.94
  L 160.00 64.21
  Q 160.00 63.31 160.80 63.71
  L 162.47 64.54
  Q 163.07 64.84 163.74 64.84
  L 180.41 64.82
  Q 180.95 64.82 181.37 64.48
  L 182.23 63.77
  Q 182.72 63.38 183.16 63.82
  L 184.49 65.12
  Q 184.90 65.52 184.75 66.08
  Q 183.86 69.36 184.35 73.04
  Q 184.43 73.64 183.90 73.94
  Q 183.04 74.42 181.85 74.66
  Q 181.10 74.82 181.26 74.08
  Q 181.33 73.81 181.17 73.53
  A 0.60 0.59 -14.5 0 0 180.65 73.23
  L 163.51 73.22
  Z
  M 181.18 66.64
  A 0.36 0.36 0.0 0 0 180.82 66.28
  L 163.58 66.28
  A 0.36 0.36 0.0 0 0 163.22 66.64
  L 163.22 71.38
  A 0.36 0.36 0.0 0 0 163.58 71.74
  L 180.82 71.74
  A 0.36 0.36 0.0 0 0 181.18 71.38
  L 181.18 66.64
  Z
  M 181.1860 79.7343
  A 0.35 0.35 0.0 0 0 180.8354 79.3850
  L 163.5954 79.4150
  A 0.35 0.35 0.0 0 0 163.2460 79.7657
  L 163.2540 84.3457
  A 0.35 0.35 0.0 0 0 163.6046 84.6950
  L 180.8446 84.6650
  A 0.35 0.35 0.0 0 0 181.1940 84.3143
  L 181.1860 79.7343
  Z"
/>
<rect fill="#a99b8e" x="-8.69" y="-2.84" transform="translate(223.56,67.59) rotate(-0.1)" width="17.38" height="5.68" rx="0.48"/>
<rect fill="#a99b8e" x="163.22" y="66.28" width="17.96" height="5.46" rx="0.36"/>
<path fill="#fffffe" d="
  M 325.42 72.43
  L 330.09 72.43
  Q 330.70 72.43 331.10 71.97
  L 331.76 71.23
  A 0.78 0.78 0.0 0 1 332.86 71.17
  L 334.72 72.84
  Q 335.21 73.28 334.76 73.77
  L 334.08 74.51
  A 1.06 1.06 0.0 0 0 333.81 75.19
  Q 333.69 81.40 332.33 86.48
  A 2.36 2.36 0.0 0 1 329.51 88.17
  L 323.73 86.83
  Q 322.91 86.64 323.05 85.81
  L 323.10 85.55
  A 0.34 0.34 0.0 0 1 323.51 85.27
  Q 329.32 86.56 329.81 84.51
  Q 330.99 79.61 331.00 74.32
  Q 331.00 73.81 330.49 73.81
  L 325.03 73.84
  Q 324.43 73.85 324.31 74.44
  Q 322.34 84.42 312.63 88.16
  Q 312.31 88.29 312.16 87.97
  L 312.04 87.73
  Q 312.00 87.65 312.08 87.61
  Q 319.86 83.28 321.37 74.38
  Q 321.45 73.89 320.95 73.89
  L 314.73 73.84
  Q 314.09 73.83 314.04 73.20
  L 314.01 72.88
  Q 313.97 72.46 314.39 72.46
  L 321.07 72.40
  A 0.74 0.74 0.0 0 0 321.80 71.68
  L 321.94 67.49
  A 0.62 0.61 5.1 0 1 322.64 66.91
  L 325.58 67.33
  Q 326.03 67.40 325.81 67.80
  Q 324.91 69.44 324.82 71.80
  Q 324.79 72.43 325.42 72.43
  Z"
/>
<rect fill="#a99b8e" x="357.76" y="74.24" width="18.50" height="10.52" rx="0.26"/>
<path fill="#fffffe" d="
  M 214.07 74.86
  L 217.07 76.18
  Q 217.30 76.29 217.17 76.50
  Q 213.01 83.23 208.89 87.28
  A 0.58 0.58 0.0 0 1 208.00 87.19
  Q 207.75 86.80 208.03 86.43
  Q 211.96 81.29 213.75 75.02
  Q 213.82 74.76 214.07 74.86
  Z"
/>
<path fill="#fffffe" d="
  M 235.35 86.95
  C 234.37 83.26 231.37 78.69 229.33 75.41
  Q 229.23 75.24 229.36 75.10
  L 229.54 74.91
  A 0.50 0.50 0.0 0 1 230.26 74.91
  Q 234.65 79.56 238.30 84.81
  Q 238.72 85.41 238.13 85.84
  L 236.22 87.25
  A 0.56 0.56 0.0 0 1 235.35 86.95
  Z"
/>
<rect fill="#a99b8e" x="-8.97" y="-2.64" transform="translate(172.22,82.04) rotate(-0.1)" width="17.94" height="5.28" rx="0.35"/>
<rect fill="#a99b8e" x="68.21" y="81.80" width="32.56" height="32.74" rx="0.52"/>
<path fill="#fffffe" d="
  M 157.23 99.66
  A 1.93 1.92 -33.2 0 0 156.46 103.33
  C 158.53 104.28 160.88 105.15 160.08 108.08
  C 159.47 110.28 156.52 109.89 154.86 109.61
  Q 154.45 109.54 154.57 109.13
  Q 154.66 108.82 154.99 108.82
  Q 156.50 108.78 157.95 108.77
  C 159.16 108.77 159.57 107.58 159.37 106.50
  A 1.61 1.59 6.0 0 0 158.40 105.32
  C 155.94 104.32 153.60 103.14 154.89 99.91
  A 1.32 1.31 0.9 0 1 155.69 99.14
  Q 157.43 98.54 159.54 98.87
  Q 159.79 98.91 159.75 99.16
  L 159.70 99.43
  A 0.23 0.23 0.0 0 1 159.49 99.62
  L 157.23 99.66
  Z"
/>
<path fill="#fffffe" d="
  M 174.27 106.75
  L 174.29 99.23
  A 0.38 0.38 0.0 0 1 174.64 98.85
  L 174.96 98.82
  Q 175.21 98.80 175.22 99.05
  L 175.25 106.47
  Q 175.27 109.72 172.03 109.73
  L 171.01 109.74
  Q 167.76 109.76 167.77 106.51
  L 167.79 99.25
  Q 167.79 98.81 168.24 98.80
  L 168.49 98.80
  Q 168.69 98.80 168.69 98.99
  L 168.75 106.54
  Q 168.77 108.81 171.04 108.79
  L 172.25 108.78
  Q 174.26 108.76 174.27 106.75
  Z"
/>
<path fill="#fffffe" d="
  M 189.42 104.52
  Q 188.69 104.58 187.95 104.38
  Q 187.17 104.16 187.95 103.93
  Q 189.21 103.57 190.64 103.80
  Q 191.04 103.87 191.08 104.29
  C 191.28 106.28 191.24 108.93 188.83 109.55
  C 182.31 111.24 183.05 105.39 183.35 101.39
  C 183.58 98.32 187.95 98.61 190.26 98.83
  Q 190.50 98.86 190.55 99.09
  Q 190.60 99.29 190.40 99.44
  Q 190.28 99.53 190.12 99.54
  L 186.08 99.63
  A 2.05 2.05 0.0 0 0 184.07 101.66
  L 184.03 106.79
  A 1.89 1.89 0.0 0 0 185.52 108.66
  Q 187.17 109.02 188.90 108.55
  Q 189.59 108.37 189.87 107.71
  Q 190.36 106.53 190.07 105.01
  A 0.61 0.60 -7.8 0 0 189.42 104.52
  Z"
/>
<path fill="#fffffe" d="
  M 204.00 105.91
  L 200.23 105.85
  A 0.19 0.19 0.0 0 0 200.05 105.98
  L 198.92 109.53
  A 0.19 0.19 0.0 0 1 198.73 109.66
  L 198.22 109.64
  A 0.19 0.19 0.0 0 1 198.04 109.39
  L 202.01 97.99
  A 0.19 0.19 0.0 0 1 202.37 97.99
  L 206.31 109.47
  A 0.19 0.19 0.0 0 1 206.19 109.71
  L 205.77 109.86
  A 0.19 0.19 0.0 0 1 205.53 109.74
  L 204.17 106.03
  A 0.19 0.19 0.0 0 0 204.00 105.91
  Z
  M 200.46 104.51
  A 0.38 0.38 0.0 0 0 200.80 105.02
  L 203.45 105.10
  A 0.38 0.38 0.0 0 0 203.82 104.61
  L 202.62 100.69
  A 0.38 0.38 0.0 0 0 201.90 100.67
  L 200.46 104.51
  Z"
/>
<path fill="#fffffe" d="
  M 218.62 101.61
  Q 217.58 104.78 216.86 107.93
  Q 215.98 111.80 214.97 107.96
  L 212.65 99.16
  Q 212.59 98.96 212.80 98.90
  L 213.06 98.83
  Q 213.38 98.75 213.48 99.07
  Q 214.76 103.10 215.27 106.45
  Q 215.64 108.93 216.35 106.53
  L 218.41 99.56
  Q 218.93 97.78 219.45 99.56
  L 221.49 106.51
  Q 222.11 108.64 222.59 106.48
  L 224.27 98.94
  Q 224.31 98.75 224.50 98.79
  L 224.81 98.86
  Q 225.20 98.96 225.11 99.35
  L 222.69 109.21
  Q 222.56 109.76 222.00 109.69
  Q 221.48 109.62 221.35 109.12
  Q 220.34 105.18 219.27 101.62
  Q 218.96 100.58 218.62 101.61
  Z"
/>
<path fill="#fffffe" d="
  M 237.06 105.88
  L 234.38 105.93
  Q 233.65 105.94 233.44 106.64
  Q 233.01 108.08 232.32 109.67
  Q 232.30 109.71 232.24 109.71
  L 231.84 109.72
  Q 231.42 109.72 231.56 109.33
  L 235.04 99.49
  Q 235.65 97.75 236.37 99.45
  Q 238.23 103.91 239.66 109.27
  Q 239.76 109.65 239.38 109.74
  L 239.10 109.81
  Q 239.10 109.81 239.05 109.66
  L 238.01 106.55
  Q 237.78 105.87 237.06 105.88
  Z
  M 234.10 104.50
  A 0.42 0.42 0.0 0 0 234.49 105.05
  L 236.80 105.09
  A 0.49 0.49 0.0 0 0 237.28 104.44
  L 236.00 100.70
  Q 235.71 99.87 235.42 100.70
  L 234.10 104.50
  Z"
/>
<path fill="#fffffe" d="
  M 247.94 105.51
  L 247.95 109.45
  Q 247.96 109.67 247.73 109.69
  L 247.35 109.70
  Q 247.07 109.72 247.07 109.43
  L 247.09 99.56
  Q 247.09 98.91 247.73 98.83
  Q 249.75 98.58 251.62 99.04
  Q 252.26 99.20 252.56 99.79
  Q 253.75 102.10 252.25 104.10
  Q 251.97 104.47 252.10 104.91
  L 253.49 109.47
  Q 253.53 109.62 253.39 109.64
  L 253.03 109.72
  A 0.26 0.25 75.9 0 1 252.74 109.54
  L 251.48 105.54
  Q 251.32 105.03 250.79 104.98
  L 248.74 104.79
  Q 247.94 104.71 247.94 105.51
  Z
  M 247.95 100.07
  L 247.97 103.51
  A 0.59 0.59 0.0 0 0 248.56 104.10
  L 250.19 104.09
  A 2.06 1.90 -0.3 0 0 252.24 102.18
  L 252.24 101.36
  A 2.06 1.90 -0.3 0 0 250.17 99.47
  L 248.54 99.48
  A 0.59 0.59 0.0 0 0 247.95 100.07
  Z"
/>
<path fill="#fffffe" d="
  M 266.19 105.94
  L 262.41 105.83
  A 0.17 0.17 0.0 0 0 262.25 105.94
  L 260.84 109.62
  A 0.17 0.17 0.0 0 1 260.63 109.72
  L 260.20 109.58
  A 0.17 0.17 0.0 0 1 260.09 109.36
  L 264.13 97.98
  A 0.17 0.17 0.0 0 1 264.45 97.98
  L 268.38 109.40
  A 0.17 0.17 0.0 0 1 268.26 109.62
  L 267.78 109.74
  A 0.17 0.17 0.0 0 1 267.58 109.63
  L 266.35 106.05
  A 0.17 0.17 0.0 0 0 266.19 105.94
  Z
  M 262.56 104.68
  A 0.32 0.32 0.0 0 0 262.86 105.10
  L 265.59 105.16
  A 0.32 0.32 0.0 0 0 265.90 104.75
  L 264.62 100.49
  A 0.32 0.32 0.0 0 0 264.01 100.48
  L 262.56 104.68
  Z"
/>
<path fill="#fffffe" d="
  M 285.49 104.50
  L 285.41 109.56
  Q 285.41 109.67 285.30 109.68
  L 285.02 109.69
  Q 284.52 109.72 284.52 109.23
  L 284.53 99.16
  A 0.31 0.31 0.0 0 1 284.82 98.85
  L 285.18 98.83
  Q 285.58 98.81 285.52 99.21
  Q 285.23 101.29 285.56 102.96
  Q 285.73 103.82 286.23 103.10
  Q 287.89 100.66 290.52 98.69
  Q 290.64 98.60 290.75 98.70
  L 290.93 98.89
  Q 291.03 98.98 290.94 99.08
  L 287.22 103.03
  A 1.21 1.21 0.0 0 0 287.18 104.64
  L 291.24 109.41
  Q 291.27 109.45 291.24 109.49
  L 291.05 109.76
  A 0.36 0.35 42.4 0 1 290.49 109.78
  L 285.90 104.35
  Q 285.49 103.87 285.49 104.50
  Z"
/>
<path fill="#fffffe" d="
  M 306.7415 105.9286
  A 3.92 3.92 0.0 0 1 302.8490 109.8759
  L 301.7090 109.8838
  A 3.92 3.92 0.0 0 1 297.7618 105.9913
  L 297.7385 102.6514
  A 3.92 3.92 0.0 0 1 301.6310 98.7041
  L 302.7710 98.6962
  A 3.92 3.92 0.0 0 1 306.7182 102.5887
  L 306.7415 105.9286
  Z
  M 305.78 102.42
  A 2.92 2.92 0.0 0 0 302.86 99.50
  L 301.56 99.50
  A 2.92 2.92 0.0 0 0 298.64 102.42
  L 298.64 106.02
  A 2.92 2.92 0.0 0 0 301.56 108.94
  L 302.86 108.94
  A 2.92 2.92 0.0 0 0 305.78 106.02
  L 305.78 102.42
  Z"
/>
<path fill="#fffffe" d="
  M 319.45 107.47
  L 322.71 100.21
  Q 324.30 96.68 324.28 100.55
  L 324.23 109.24
  Q 324.23 109.67 323.80 109.67
  L 323.53 109.66
  Q 323.42 109.66 323.42 109.55
  L 323.32 102.83
  Q 323.29 100.90 322.52 102.67
  L 319.58 109.41
  A 0.45 0.45 0.0 0 1 318.76 109.41
  L 315.71 102.14
  Q 315.32 101.20 315.21 102.21
  Q 314.83 105.74 315.02 109.33
  Q 315.03 109.61 314.76 109.63
  L 314.48 109.65
  Q 314.12 109.68 314.11 109.33
  Q 313.88 104.12 314.12 99.75
  Q 314.24 97.61 315.24 99.51
  Q 317.13 103.12 318.87 107.46
  A 0.32 0.32 0.0 0 0 319.45 107.47
  Z"
/>
<path fill="#fffffe" d="
  M 335.40 108.80
  L 336.47 108.80
  Q 338.74 108.81 338.75 106.53
  L 338.78 99.12
  Q 338.78 98.77 339.13 98.82
  L 339.38 98.86
  Q 339.51 98.88 339.51 99.01
  L 339.52 106.62
  Q 339.53 109.76 336.38 109.75
  L 335.49 109.75
  Q 332.23 109.74 332.25 106.48
  L 332.30 98.93
  Q 332.31 98.81 332.44 98.80
  L 332.72 98.80
  A 0.47 0.46 88.8 0 1 333.19 99.26
  L 333.23 106.65
  Q 333.24 108.80 335.40 108.80
  Z"
/>
<path fill="#fffffe" d="
  M 350.72 100.19
  L 350.68 109.51
  Q 350.68 109.71 350.47 109.71
  L 350.22 109.71
  A 0.46 0.45 0.7 0 1 349.77 109.26
  L 349.78 100.21
  Q 349.78 99.65 349.21 99.62
  L 346.48 99.47
  Q 346.38 99.46 346.36 99.36
  L 346.33 99.07
  Q 346.31 98.87 346.51 98.86
  L 353.73 98.75
  Q 354.00 98.75 353.99 99.02
  L 353.98 99.43
  A 0.36 0.35 9.2 0 1 353.53 99.75
  Q 352.33 99.41 351.24 99.59
  Q 350.73 99.67 350.72 100.19
  Z"
/>
<path fill="#fffffe" d="
  M 362.36 103.50
  L 365.37 103.50
  Q 365.65 103.50 365.65 103.78
  L 365.65 104.07
  Q 365.66 104.23 365.49 104.23
  L 362.24 104.22
  Q 361.70 104.22 361.69 104.76
  L 361.64 108.22
  Q 361.62 109.09 362.49 108.99
  Q 363.98 108.82 365.71 108.90
  Q 366.01 108.91 366.18 109.15
  Q 366.27 109.27 366.23 109.43
  Q 366.13 109.80 365.76 109.80
  L 361.51 109.78
  Q 360.75 109.78 360.75 109.01
  L 360.74 99.53
  Q 360.74 98.79 361.48 98.79
  L 365.65 98.79
  Q 366.02 98.79 365.99 99.16
  L 365.97 99.44
  Q 365.96 99.61 365.79 99.61
  L 362.61 99.59
  A 0.92 0.92 0.0 0 0 361.68 100.52
  L 361.71 102.86
  A 0.65 0.64 0.0 0 0 362.36 103.50
  Z"
/>
<path fill="#fffffe" d="
  M 374.55 101.71
  L 374.50 109.58
  Q 374.50 109.73 374.35 109.78
  L 374.11 109.86
  Q 373.75 109.99 373.75 109.61
  L 373.63 99.96
  Q 373.59 97.24 375.04 99.54
  L 379.68 106.92
  Q 380.45 108.15 380.45 106.70
  L 380.44 99.21
  Q 380.44 98.85 380.81 98.84
  L 381.06 98.84
  Q 381.29 98.84 381.30 99.06
  Q 381.51 104.31 381.34 108.37
  Q 381.22 110.99 379.83 108.77
  L 375.31 101.49
  Q 374.56 100.29 374.55 101.71
  Z"
/>
<path fill="#a99b8e" d="
  M 247.95 100.07
  A 0.59 0.59 0.0 0 1 248.54 99.48
  L 250.17 99.47
  A 2.06 1.90 -0.3 0 1 252.24 101.36
  L 252.24 102.18
  A 2.06 1.90 -0.3 0 1 250.19 104.09
  L 248.56 104.10
  A 0.59 0.59 0.0 0 1 247.97 103.51
  L 247.95 100.07
  Z"
/>
<rect fill="#a99b8e" x="298.64" y="99.50" width="7.14" height="9.44" rx="2.92"/>
<path fill="#a99b8e" d="
  M 262.56 104.68
  L 264.01 100.48
  A 0.32 0.32 0.0 0 1 264.62 100.49
  L 265.90 104.75
  A 0.32 0.32 0.0 0 1 265.59 105.16
  L 262.86 105.10
  A 0.32 0.32 0.0 0 1 262.56 104.68
  Z"
/>
<path fill="#a99b8e" d="
  M 200.46 104.51
  L 201.90 100.67
  A 0.38 0.38 0.0 0 1 202.62 100.69
  L 203.82 104.61
  A 0.38 0.38 0.0 0 1 203.45 105.10
  L 200.80 105.02
  A 0.38 0.38 0.0 0 1 200.46 104.51
  Z"
/>
<path fill="#a99b8e" d="
  M 234.10 104.50
  L 235.42 100.70
  Q 235.71 99.87 236.00 100.70
  L 237.28 104.44
  A 0.49 0.49 0.0 0 1 236.80 105.09
  L 234.49 105.05
  A 0.42 0.42 0.0 0 1 234.10 104.50
  Z"
/>
</svg>
